<?xml version="1.0" encoding="UTF-8"?>
<svg version="1.1" xmlns="http://www.w3.org/2000/svg" width="240" height="240">
<path d="M0 0 C2.18015639 1.73562095 4.00968706 3.33664165 5.734375 5.52734375 C8.55811503 9.08612951 10.64825023 10.66687474 15.1796875 11.22265625 C19.18501638 11.53960237 23.17103613 11.5962518 27.1875 11.5625 C27.53900351 16.34570464 26.92164981 18.43385719 24 22.1875 C21.97991478 25.32146399 21.13158219 26.83929628 21.421875 30.59375 C22.23438059 33.62914824 23.18787015 36.58426395 24.1875 39.5625 C27.55855243 56.38819151 23.70377995 73.65474635 15 88.25 C4.45890681 103.8128157 -9.99424445 111.87170773 -27.96484375 116.34765625 C-31.50616456 117.85842548 -32.19529952 119.22152528 -33.875 122.625 C-35.22265625 125.34765625 -35.22265625 125.34765625 -36.8125 127.5625 C-39.49609375 128.37109375 -39.49609375 128.37109375 -41.8125 128.5625 C-44.47916667 124.5625 -47.14583333 120.5625 -49.8125 116.5625 C-52.93680806 115.56392571 -52.93680806 115.56392571 -56.625 114.8125 C-72.78808218 110.85375831 -86.30695638 101.16081213 -95.35546875 87.13671875 C-105.21971328 69.70900522 -106.83446128 50.6262622 -102.28125 31.30859375 C-101.68390383 28.37355634 -101.48077275 26.20875383 -102.8671875 23.5078125 C-104.20776045 21.44235422 -104.20776045 21.44235422 -105.68359375 19.6171875 C-107.19795775 16.86094021 -106.99206419 14.6545078 -106.8125 11.5625 C-105.70390625 11.54832031 -104.5953125 11.53414062 -103.453125 11.51953125 C-101.98954216 11.47262154 -100.52600177 11.42437419 -99.0625 11.375 C-97.96808594 11.36629883 -97.96808594 11.36629883 -96.8515625 11.35742188 C-93.10860206 11.20430077 -91.26112673 11.02868863 -88.6171875 8.28125 C-88.02164063 7.3840625 -87.42609375 6.486875 -86.8125 5.5625 C-85.14679223 4.0758169 -83.43727284 2.63676027 -81.6875 1.25 C-80.81867188 0.55261719 -79.94984375 -0.14476563 -79.0546875 -0.86328125 C-76.8125 -2.4375 -76.8125 -2.4375 -74.8125 -2.4375 C-74.8125 -3.0975 -74.8125 -3.7575 -74.8125 -4.4375 C-50.96842202 -16.52678202 -21.85266614 -16.45420716 0 0 Z M-70.8125 8.5625 C-71.4725 9.5525 -72.1325 10.5425 -72.8125 11.5625 C-66.52798732 11.96151668 -62.47577672 11.39137833 -56.85546875 8.53515625 C-47.340723 4.00519126 -32.3628039 5.22638992 -22.625 8.5 C-20.2882009 9.4327138 -18.06093035 10.43828482 -15.8125 11.5625 C-14.27226004 11.63200541 -12.72915012 11.64702357 -11.1875 11.625 C-10.37023437 11.61597656 -9.55296875 11.60695313 -8.7109375 11.59765625 C-8.08445312 11.58605469 -7.45796875 11.57445312 -6.8125 11.5625 C-14.44452756 3.2379366 -25.48959596 -0.79817078 -36.609375 -1.65234375 C-49.31390376 -2.06375984 -60.24718105 1.62408159 -70.8125 8.5625 Z M-89.8125 22.5625 C-89.35101563 23.36429688 -88.88953125 24.16609375 -88.4140625 24.9921875 C-85.02854126 30.89343204 -81.66862479 36.80525407 -78.38549805 42.76416016 C-73.50917184 51.6105135 -68.47003645 60.35312464 -63.36376953 69.06860352 C-60.10854336 74.62530378 -56.86660115 80.18905672 -53.65234375 85.76953125 C-53.30919632 86.36526947 -52.96604889 86.96100769 -52.61250305 87.57479858 C-50.94358752 90.47342183 -49.27644361 93.3730494 -47.6105957 96.2734375 C-47.01206787 97.31371094 -46.41354004 98.35398437 -45.796875 99.42578125 C-45.00361816 100.80697144 -45.00361816 100.80697144 -44.19433594 102.21606445 C-43.12425189 104.03312767 -41.98222036 105.80791946 -40.8125 107.5625 C-40.1525 107.5625 -39.4925 107.5625 -38.8125 107.5625 C-37.91355299 104.07391397 -37.59300592 102.12025287 -38.9296875 98.72363281 C-39.50976562 97.74749023 -40.08984375 96.77134766 -40.6875 95.765625 C-41.335979 94.65445313 -41.98445801 93.54328125 -42.65258789 92.3984375 C-43.3723214 91.20298216 -44.09229806 90.00767319 -44.8125 88.8125 C-45.54389579 87.57128886 -46.27361006 86.32908546 -47.00170898 85.0859375 C-48.50890462 82.51684418 -50.02441123 79.95294164 -51.54638672 77.39257812 C-55.05147382 71.48514056 -58.45541734 65.51969941 -61.875 59.5625 C-63.05240095 57.52026545 -64.23074949 55.47857684 -65.41015625 53.4375 C-65.96517822 52.47553711 -66.5202002 51.51357422 -67.09204102 50.52246094 C-68.30140164 48.44181836 -69.52163286 46.36747485 -70.74975586 44.29785156 C-71.37889893 43.2353418 -72.00804199 42.17283203 -72.65625 41.078125 C-73.22666016 40.12196289 -73.79707031 39.16580078 -74.38476562 38.18066406 C-76.12525469 34.98897378 -77.08679989 32.11036721 -77.8125 28.5625 C-73.86796026 28.1585683 -70.588442 28.2902264 -66.8125 29.5625 C-63.36299026 33.20719165 -61.2863574 37.54577444 -59.0625 42 C-58.39321537 43.26432955 -57.71956048 44.52635449 -57.04174805 45.78613281 C-55.64262669 48.39384213 -54.26239706 51.01030339 -52.89404297 53.63427734 C-49.65615077 59.79903691 -46.12923903 65.79671559 -42.625 71.8125 C-42.01366211 72.87525146 -41.40232422 73.93800293 -40.77246094 75.03295898 C-37.5589448 80.61543624 -34.26611376 86.12517212 -30.8125 91.5625 C-29.14628575 90.3979799 -29.14628575 90.3979799 -27.8125 88.5625 C-28.0388451 84.58664545 -29.67255356 81.68817073 -31.6640625 78.30078125 C-32.55943726 76.76442017 -32.55943726 76.76442017 -33.47290039 75.19702148 C-34.12121826 74.10075439 -34.76953613 73.0044873 -35.4375 71.875 C-36.45443744 70.13637296 -37.471362 68.39773823 -38.48750305 66.65864563 C-39.19071666 65.45616972 -39.89490281 64.25426208 -40.60002136 63.05290222 C-43.07002113 58.84391746 -45.51053547 54.618975 -47.93359375 50.3828125 C-48.60138753 49.21703402 -49.26919337 48.05126245 -49.93701172 46.88549805 C-51.19678924 44.68477559 -52.45501406 42.48316333 -53.71142578 40.28051758 C-54.85826026 38.28428795 -56.02142036 36.29732068 -57.203125 34.3215332 C-58.8125 31.5625 -58.8125 31.5625 -60.125 28.84057617 C-61.49275716 26.25447005 -62.58543727 24.46613632 -64.8125 22.5625 C-69.1588084 21.48658394 -73.24506338 21.70667885 -77.6875 22 C-79.43546875 22.0609082 -79.43546875 22.0609082 -81.21875 22.12304688 C-84.08761602 22.2288657 -86.94789942 22.37650762 -89.8125 22.5625 Z M-50.8125 22.5625 C-49.35961014 27.1466963 -49.35961014 27.1466963 -47.8125 28.5625 C-46.40132298 28.68459924 -44.98429541 28.74020872 -43.56811523 28.76782227 C-42.21682777 28.7977401 -42.21682777 28.7977401 -40.83824158 28.82826233 C-39.85908279 28.84497482 -38.87992401 28.86168732 -37.87109375 28.87890625 C-36.87368668 28.89968735 -35.8762796 28.92046844 -34.84864807 28.94187927 C-31.64917157 29.00748637 -28.44961018 29.06631134 -25.25 29.125 C-23.08657961 29.16817462 -20.92316794 29.21178855 -18.75976562 29.25585938 C-13.44410126 29.36317903 -8.12835166 29.46492427 -2.8125 29.5625 C-3.34369887 34.1979497 -4.56528357 37.34686779 -6.97265625 41.328125 C-7.60107422 42.38257812 -8.22949219 43.43703125 -8.87695312 44.5234375 C-9.53630859 45.60882813 -10.19566406 46.69421875 -10.875 47.8125 C-12.18211473 49.98213261 -13.48569583 52.15389935 -14.78515625 54.328125 C-15.36531494 55.28493164 -15.94547363 56.24173828 -16.54321289 57.22753906 C-17.97169886 59.41241718 -17.97169886 59.41241718 -17.8125 61.5625 C-20.93337911 61.26137413 -22.3879994 61.05896261 -24.46582031 58.62890625 C-25.17109863 57.38947266 -25.17109863 57.38947266 -25.890625 56.125 C-26.41140625 55.23039062 -26.9321875 54.33578125 -27.46875 53.4140625 C-27.9946875 52.47304687 -28.520625 51.53203125 -29.0625 50.5625 C-30.12951157 48.70793228 -31.19718424 46.85374471 -32.265625 45 C-32.96413574 43.76056641 -32.96413574 43.76056641 -33.67675781 42.49609375 C-34.66759744 40.62354192 -34.66759744 40.62354192 -35.8125 39.5625 C-37.47867115 39.52186168 -39.14638095 39.519779 -40.8125 39.5625 C-39.38764729 43.35748625 -37.64786519 46.81285664 -35.66015625 50.34375 C-35.04849609 51.43300781 -34.43683594 52.52226563 -33.80664062 53.64453125 C-33.16919922 54.77246094 -32.53175781 55.90039062 -31.875 57.0625 C-31.24142578 58.19042969 -30.60785156 59.31835938 -29.95507812 60.48046875 C-28.24885793 63.51255301 -26.54159619 66.54340113 -24.8125 69.5625 C-24.03024048 70.97885742 -24.03024048 70.97885742 -23.23217773 72.42382812 C-22.76368408 73.12958984 -22.29519043 73.83535156 -21.8125 74.5625 C-21.1525 74.5625 -20.4925 74.5625 -19.8125 74.5625 C-18.48607034 72.83621242 -18.48607034 72.83621242 -17.203125 70.57421875 C-16.699021 69.72851318 -16.19491699 68.88280762 -15.67553711 68.01147461 C-15.14323486 67.10018799 -14.61093262 66.18890137 -14.0625 65.25 C-13.51537354 64.32517822 -12.96824707 63.40035645 -12.40454102 62.44750977 C-9.31742013 57.2067337 -6.30750494 51.93620266 -3.45703125 46.5625 C-2.0147609 43.93147 -0.5264781 41.33963774 0.98828125 38.75 C1.49286865 37.88705322 1.99745605 37.02410645 2.51733398 36.13500977 C3.53533835 34.39898179 4.55690248 32.66503561 5.58227539 30.93334961 C6.04754639 30.13936768 6.51281738 29.34538574 6.9921875 28.52734375 C7.41483887 27.8118335 7.83749023 27.09632324 8.27294922 26.35913086 C9.33871486 24.60144032 9.33871486 24.60144032 9.1875 22.5625 C-10.6125 22.5625 -30.4125 22.5625 -50.8125 22.5625 Z M-92.8125 41.5625 C-92.9775 42.5525 -93.1425 43.5425 -93.3125 44.5625 C-93.4053125 45.119375 -93.498125 45.67625 -93.59375 46.25 C-94.89105895 59.96440888 -91.05230512 73.53525151 -82.8125 84.5625 C-76.26958961 92.32317605 -69.02658682 98.22906912 -59.8125 102.5625 C-59.1525 102.5625 -58.4925 102.5625 -57.8125 102.5625 C-59.30024347 96.61152614 -61.72775686 94.65571856 -66.671875 91.30078125 C-76.50765987 84.34329776 -83.06444091 74.73407111 -85.4609375 62.9140625 C-85.82798954 60.4588922 -85.97927106 58.03989196 -86.125 55.5625 C-86.57156582 50.0834809 -88.84138205 46.10140344 -91.8125 41.5625 C-92.1425 41.5625 -92.4725 41.5625 -92.8125 41.5625 Z M12.1875 41.5625 C8.30044596 46.90349029 6.84072458 51.71673707 6.3125 58.25 C5.19620922 70.55956404 -0.51997938 81.27966394 -9.8125 89.5625 C-12.12510072 91.2020023 -14.47980054 92.72222054 -16.88671875 94.21875 C-19.38778385 95.9639151 -20.70906589 97.725098 -21.8125 100.5625 C-21.4825 101.2225 -21.1525 101.8825 -20.8125 102.5625 C-6.26302811 95.5090488 5.33222354 84.87311689 11.1875 69.5625 C13.93536816 60.01392337 14.56274961 51.38807853 13.1875 41.5625 C12.8575 41.5625 12.5275 41.5625 12.1875 41.5625 Z " fill="#A8833F" transform="translate(161.8125,66.4375)"/>
<path d="M0 0 C1.31266846 -0.00833862 1.31266846 -0.00833862 2.65185547 -0.0168457 C8.4486193 0.04727052 13.63110626 0.88502801 19.25 2.3125 C19.25 2.9725 19.25 3.6325 19.25 4.3125 C20.508125 4.6425 21.76625 4.9725 23.0625 5.3125 C32.79837923 8.57310106 40.38806287 15.91969667 47.25 23.3125 C46.59 23.9725 45.93 24.6325 45.25 25.3125 C39.65726261 23.53299265 35.43241232 21.51961326 30.75 18 C17.52040792 8.61188947 3.9969973 7.18681609 -11.75 8.3125 C-21.50250639 9.98493395 -31.90079726 14.45474488 -38.96484375 21.53125 C-40.75 23.3125 -40.75 23.3125 -42.75 23.3125 C-42.75 23.9725 -42.75 24.6325 -42.75 25.3125 C-41.72132812 25.07466797 -41.72132812 25.07466797 -40.671875 24.83203125 C-37.42607964 24.25490453 -34.29341782 24.12807736 -31 24 C-25.55867909 23.65207487 -21.42795839 22.79577759 -16.6171875 20.25 C-13.03647617 18.45215331 -9.73626923 18.1906325 -5.765625 18.21484375 C-4.83105469 18.21806641 -3.89648438 18.22128906 -2.93359375 18.22460938 C-1.48146484 18.23717773 -1.48146484 18.23717773 0 18.25 C0.98355469 18.25451172 1.96710938 18.25902344 2.98046875 18.26367188 C5.40370791 18.27543517 7.82682273 18.29187316 10.25 18.3125 C10.25 18.9725 10.25 19.6325 10.25 20.3125 C11.136875 20.415625 12.02375 20.51875 12.9375 20.625 C16.25 21.3125 16.25 21.3125 18.3828125 22.82421875 C23.01375094 25.2280165 27.78903369 24.78332728 32.91992188 24.83984375 C35.03499384 24.89903095 37.14516365 25.09640624 39.25 25.3125 C40.24 26.7975 40.24 26.7975 41.25 28.3125 C41.93964844 28.0959375 42.62929687 27.879375 43.33984375 27.65625 C49.5499168 25.81622836 54.78028208 24.99431715 61.25 25.3125 C60.8273436 28.79941533 60.08658838 30.55702536 58.09375 33.5390625 C56.32568469 36.57519442 56.22840107 37.15416591 56.734375 40.86328125 C57.15203125 42.10464844 57.5696875 43.34601563 58 44.625 C59.90745268 50.89929862 60.63381253 56.62872851 60.5625 63.1875 C60.55508789 63.96649658 60.54767578 64.74549316 60.54003906 65.5480957 C60.41168718 70.98912563 60.41168718 70.98912563 59.25 73.3125 C58.59 73.3125 57.93 73.3125 57.25 73.3125 C56.981875 74.034375 56.71375 74.75625 56.4375 75.5 C55.25 78.3125 55.25 78.3125 53.875 80.5 C51.51980378 84.57630115 49.92920969 88.92268786 48.25 93.3125 C47.59 93.3125 46.93 93.3125 46.25 93.3125 C46.04375 93.993125 45.8375 94.67375 45.625 95.375 C41.10898044 105.02285996 31.01124977 111.70997711 21.58984375 116.140625 C18.41861387 117.25333724 17.25744427 117.63577548 14.25 116.3125 C15.28898437 115.83941406 16.32796875 115.36632812 17.3984375 114.87890625 C31.8386354 108.11391019 43.00385337 99.45271665 49.5625 84.4375 C54.08815267 71.77737679 53.18760697 59.49829287 52.25 46.3125 C44.08415319 54.31389573 41.90651518 63.41437382 40.25 74.3125 C39.033125 74.1475 37.81625 73.9825 36.5625 73.8125 C34.345826 73.70104476 34.345826 73.70104476 32.25 74.3125 C30.55727785 76.19867611 29.50827621 78.10916967 28.3359375 80.3515625 C27.02605985 82.71688114 25.44198012 83.77811392 23.25 85.3125 C21.51509754 87.89693323 21.51509754 87.89693323 20.25 90.3125 C19.25 87.3125 19.25 87.3125 20.14282227 85.31054688 C20.61260498 84.55837891 21.0823877 83.80621094 21.56640625 83.03125 C22.08009766 82.19537354 22.59378906 81.35949707 23.12304688 80.49829102 C23.68056641 79.61197998 24.23808594 78.72566895 24.8125 77.8125 C25.94033073 75.97880391 27.06665074 74.14417773 28.19140625 72.30859375 C28.73039551 71.43315918 29.26938477 70.55772461 29.82470703 69.65576172 C31.37862098 67.10103988 32.84310702 64.51345887 34.25 61.875 C39.07683007 52.92525258 44.20506304 44.14113967 49.25 35.3125 C29.45 35.3125 9.65 35.3125 -10.75 35.3125 C-8.49731861 40.30449667 -8.49731861 40.30449667 -5.79475403 40.95173645 C-5.05529037 40.95839828 -4.31582672 40.96506012 -3.55395508 40.97192383 C-2.71331009 40.99156693 -1.8726651 41.01121002 -1.00654602 41.03144836 C-0.10333115 41.02751572 0.79988373 41.02358307 1.73046875 41.01953125 C2.65845779 41.03465256 3.58644684 41.04977386 4.54255676 41.06535339 C7.50778258 41.10835616 10.47199294 41.11708046 13.4375 41.125 C15.44729286 41.14813454 17.4570614 41.17349769 19.46679688 41.20117188 C24.39462151 41.26414851 29.32180826 41.29638551 34.25 41.3125 C30.58083611 48.08933452 26.87235107 54.83692678 23 61.5 C22.566875 62.26119141 22.13375 63.02238281 21.6875 63.80664062 C20.59888654 65.67643504 19.43145694 67.49994106 18.25 69.3125 C17.59 69.3125 16.93 69.3125 16.25 69.3125 C15.94932617 68.68158447 15.64865234 68.05066895 15.33886719 67.40063477 C13.93914109 64.53320645 12.47144397 61.70624854 11 58.875 C10.52820313 57.88177734 10.05640625 56.88855469 9.5703125 55.86523438 C8.00046989 52.91674793 6.65229239 50.64214689 4.25 48.3125 C0.18573278 47.15429909 -3.54906772 47.04403551 -7.75 47.3125 C-7.38124756 47.92770508 -7.01249512 48.54291016 -6.63256836 49.17675781 C-4.97130508 51.96454635 -3.32928971 54.76320269 -1.6875 57.5625 C-1.10677734 58.53058594 -0.52605469 59.49867187 0.07226562 60.49609375 C0.88920898 61.89794922 0.88920898 61.89794922 1.72265625 63.328125 C2.23062744 64.18696289 2.73859863 65.04580078 3.26196289 65.93066406 C4.3709714 68.60412267 4.28326595 69.66089803 3.25 72.3125 C0.9543457 72.1159668 0.9543457 72.1159668 -1.75 71.3125 C-3.47583008 69.21801758 -3.47583008 69.21801758 -5.01953125 66.45703125 C-5.59493652 65.44785645 -6.1703418 64.43868164 -6.76318359 63.39892578 C-7.35695801 62.31853027 -7.95073242 61.23813477 -8.5625 60.125 C-9.17689941 59.03687012 -9.79129883 57.94874023 -10.42431641 56.82763672 C-11.64860373 54.6574705 -12.86650717 52.48368904 -14.07763672 50.30615234 C-15.5073477 47.74686533 -16.96118271 45.20604371 -18.44140625 42.67578125 C-18.81869873 42.02955811 -19.19599121 41.38333496 -19.5847168 40.7175293 C-19.92801025 40.13011963 -20.27130371 39.54270996 -20.625 38.9375 C-23.75 33.56354603 -23.75 33.56354603 -23.75 31.3125 C-34.31 31.3125 -44.87 31.3125 -55.75 31.3125 C-45.24617542 49.57370309 -45.24617542 49.57370309 -34.60229492 67.75317383 C-30.08494453 75.40852392 -25.66321469 83.11929183 -21.2421875 90.83056641 C-18.47241187 95.64994757 -15.6940308 100.45402407 -12.75390625 105.171875 C-12.32343994 105.86522949 -11.89297363 106.55858398 -11.44946289 107.27294922 C-10.34205172 109.04056949 -9.21860686 110.79811755 -8.09375 112.5546875 C-6.75 115.3125 -6.75 115.3125 -7.03125 117.6953125 C-7.2684375 118.22898437 -7.505625 118.76265625 -7.75 119.3125 C-8.08 117.9925 -8.41 116.6725 -8.75 115.3125 C-9.41 115.3125 -10.07 115.3125 -10.75 115.3125 C-10.75 115.9725 -10.75 116.6325 -10.75 117.3125 C-12.546875 117.15234375 -12.546875 117.15234375 -14.75 116.3125 C-16.453125 113.87890625 -16.453125 113.87890625 -18 110.875 C-18.78117187 109.39193359 -18.78117187 109.39193359 -19.578125 107.87890625 C-20.75 105.3125 -20.75 105.3125 -20.75 103.3125 C-21.48476562 103.04566406 -22.21953125 102.77882813 -22.9765625 102.50390625 C-31.97358242 98.63898924 -39.94350893 90.34142326 -43.75 81.3125 C-43.75 80.3225 -43.75 79.3325 -43.75 78.3125 C-44.41 78.3125 -45.07 78.3125 -45.75 78.3125 C-46.66778457 74.39172431 -46.84226023 70.70571117 -46.9375 66.6875 C-47.33357398 60.20008139 -49.03747481 55.88583419 -52.47265625 50.421875 C-53.75 48.3125 -53.75 48.3125 -53.75 46.3125 C-54.41 46.3125 -55.07 46.3125 -55.75 46.3125 C-57.12559416 53.96507723 -58.16993763 61.55798194 -58.75 69.3125 C-60.625 69.125 -60.625 69.125 -62.75 68.3125 C-66.18102544 62.44587008 -64.82753345 54.50122159 -63.1953125 48.15625 C-63.00710937 47.5890625 -62.81890625 47.021875 -62.625 46.4375 C-61.54748146 42.58921952 -61.76642045 40.17656253 -62.75 36.3125 C-63.430625 35.301875 -64.11125 34.29125 -64.8125 33.25 C-67.04614509 29.86350584 -66.91990301 28.26411508 -66.75 24.3125 C-65.64140625 24.29832031 -64.5328125 24.28414062 -63.390625 24.26953125 C-61.92704216 24.22262154 -60.46350177 24.17437419 -59 24.125 C-57.90558594 24.11629883 -57.90558594 24.11629883 -56.7890625 24.10742188 C-53.04610206 23.95430077 -51.19862673 23.77868863 -48.5546875 21.03125 C-47.95914063 20.1340625 -47.36359375 19.236875 -46.75 18.3125 C-45.08429223 16.8258169 -43.37477284 15.38676027 -41.625 14 C-40.75617188 13.30261719 -39.88734375 12.60523437 -38.9921875 11.88671875 C-36.75 10.3125 -36.75 10.3125 -34.75 10.3125 C-34.75 9.6525 -34.75 8.9925 -34.75 8.3125 C-23.29964876 2.5070113 -12.79280897 0.0683209 0 0 Z " fill="#DCC567" transform="translate(121.75,53.6875)"/>
<path d="M0 0 C9.60803278 0.7585289 18.01519728 6.73226829 25 13 C25.76957031 13.97453125 25.76957031 13.97453125 26.5546875 14.96875 C29.37125223 18.52958831 31.46505031 20.10490215 35.9921875 20.66015625 C39.99751638 20.97710237 43.98353613 21.0337518 48 21 C48.35150351 25.78320464 47.73414981 27.87135719 44.8125 31.625 C42.79241478 34.75896399 41.94408219 36.27679628 42.234375 40.03125 C43.04688059 43.06664824 44.00037015 46.02176395 45 49 C48.37105243 65.82569151 44.51627995 83.09224635 35.8125 97.6875 C25.27140681 113.2503157 10.81825555 121.30920773 -7.15234375 125.78515625 C-10.69366456 127.29592548 -11.38279952 128.65902528 -13.0625 132.0625 C-14.41015625 134.78515625 -14.41015625 134.78515625 -16 137 C-18.68359375 137.80859375 -18.68359375 137.80859375 -21 138 C-23.66666667 134 -26.33333333 130 -29 126 C-32.12430806 125.00142571 -32.12430806 125.00142571 -35.8125 124.25 C-52.00846975 120.28320332 -65.3928585 110.60136346 -74.53125 96.625 C-81 85.06382979 -81 85.06382979 -81 79 C-80.34 79 -79.68 79 -79 79 C-78.649375 80.258125 -78.29875 81.51625 -77.9375 82.8125 C-72.80342205 98.07078773 -61.75609242 107.53288108 -48 115 C-42.88879166 117.49291258 -38.40221597 118.98127362 -32.75 119.5625 C-29.22743578 120.13851679 -28.28490208 120.61856086 -26.109375 123.53125 C-25.05913123 125.50937904 -24.07078641 127.521992 -23.15625 129.56640625 C-22.24171054 132.13579412 -22.24171054 132.13579412 -20 133 C-19.7525 132.319375 -19.505 131.63875 -19.25 130.9375 C-18.8375 129.968125 -18.425 128.99875 -18 128 C-17.608125 126.824375 -17.21625 125.64875 -16.8125 124.4375 C-15.14917353 121.54692516 -14.03126201 121.01107437 -10.82421875 119.875 C-8.88024817 119.39843929 -6.93587398 118.92284928 -4.98461914 118.47705078 C8.13268153 115.44719236 20.8025003 107.72646458 28.52734375 96.48828125 C38.52128961 79.60195893 43.46593202 62.73872809 38.5625 43.125 C37.85574072 40.72816419 37.15641751 38.38635124 36.21875 36.0703125 C35.87052538 32.77461523 37.4068127 30.6239435 38.9375 27.75 C39.50339844 26.67234375 40.06929688 25.5946875 40.65234375 24.484375 C41.09707031 23.66453125 41.54179687 22.8446875 42 22 C34.89622327 23.01791923 27.92488567 24.09905099 21 26 C20.505 24.02 20.505 24.02 20 22 C18.19015625 22.06960937 18.19015625 22.06960937 16.34375 22.140625 C14.72919164 22.17817287 13.11460622 22.21456977 11.5 22.25 C10.31277344 22.30027344 10.31277344 22.30027344 9.1015625 22.3515625 C1.72343287 22.47251544 -2.96852319 20.02098454 -9 16 C-5.13524923 16.39436232 -2.11823733 16.94625576 1.4375 18.5625 C5.69738212 20.2813998 8.45863788 20.23901906 13 20 C0.14499347 11.63448599 -12.56894915 7.23109067 -27.9921875 9.42578125 C-36.30577829 11.22301639 -45.87694562 14.87694562 -52 21 C-54.3828125 21.4140625 -54.3828125 21.4140625 -57.125 21.625 C-58.03507812 21.69976562 -58.94515625 21.77453125 -59.8828125 21.8515625 C-60.58148438 21.90054688 -61.28015625 21.94953125 -62 22 C-62 21.34 -62 20.68 -62 20 C-50.18005588 9.50025906 -37.02459524 3.58170421 -21.125 3.6875 C-20.23876953 3.69313965 -19.35253906 3.6987793 -18.43945312 3.70458984 C-12.17363056 3.82117939 -6.75823853 4.38083529 -1 7 C-0.00613281 7.43699219 0.98773438 7.87398438 2.01171875 8.32421875 C7.54197051 10.91588655 12.07778104 13.64807892 16.5390625 17.8046875 C18.59210141 19.48444661 20.37460744 19.92498878 23 20 C23.99 19.505 23.99 19.505 25 19 C25.99 19.99 25.99 19.99 27 21 C19.47133373 11.54090649 10.93228381 6.04993821 0 1 C0 0.67 0 0.34 0 0 Z " fill="#030302" transform="translate(141,57)"/>
<path d="M0 0 C0.495 1.98 0.495 1.98 1 4 C1.99 4.33 2.98 4.66 4 5 C4.33 4.34 4.66 3.68 5 3 C5.495 3.495 5.495 3.495 6 4 C8.20794411 4.12406815 10.41984486 4.17802278 12.63110352 4.20532227 C13.67007782 4.22017166 13.67007782 4.22017166 14.7300415 4.23532104 C17.02962779 4.2670203 19.32923477 4.29172651 21.62890625 4.31640625 C23.21932018 4.33696852 24.80972855 4.35796479 26.40013123 4.37937927 C30.59389763 4.43467509 34.78771395 4.4840511 38.98156738 4.53222656 C43.25793928 4.58238691 47.53423834 4.63810144 51.81054688 4.69335938 C60.20696973 4.80103274 68.60345338 4.90245716 77 5 C77 5.66 77 6.32 77 7 C76.34 7 75.68 7 75 7 C74.67 7.99 74.34 8.98 74 10 C53.87 10 33.74 10 13 10 C15.25268139 14.99199667 15.25268139 14.99199667 17.95524597 15.63923645 C19.06444145 15.6492292 19.06444145 15.6492292 20.19604492 15.65942383 C21.03668991 15.67906693 21.8773349 15.69871002 22.74345398 15.71894836 C23.64666885 15.71501572 24.54988373 15.71108307 25.48046875 15.70703125 C26.40845779 15.72215256 27.33644684 15.73727386 28.29255676 15.75285339 C31.25778258 15.79585616 34.22199294 15.80458046 37.1875 15.8125 C39.19729286 15.83563454 41.2070614 15.86099769 43.21679688 15.88867188 C48.14462151 15.95164851 53.07180826 15.98388551 58 16 C54.33083611 22.77683452 50.62235107 29.52442678 46.75 36.1875 C46.316875 36.94869141 45.88375 37.70988281 45.4375 38.49414062 C44.34888654 40.36393504 43.18145694 42.18744106 42 44 C41.34 44 40.68 44 40 44 C39.69932617 43.36908447 39.39865234 42.73816895 39.08886719 42.08813477 C37.68914109 39.22070645 36.22144397 36.39374854 34.75 33.5625 C34.27820313 32.56927734 33.80640625 31.57605469 33.3203125 30.55273438 C31.75046989 27.60424793 30.40229239 25.32964689 28 23 C23.93573278 21.84179909 20.20093228 21.73153551 16 22 C16.55312866 22.92280762 16.55312866 22.92280762 17.11743164 23.86425781 C18.77869492 26.65204635 20.42071029 29.45070269 22.0625 32.25 C22.64322266 33.21808594 23.22394531 34.18617187 23.82226562 35.18359375 C24.36689453 36.11816406 24.91152344 37.05273438 25.47265625 38.015625 C25.98062744 38.87446289 26.48859863 39.73330078 27.01196289 40.61816406 C28.1209714 43.29162267 28.03326595 44.34839803 27 47 C24.7043457 46.8034668 24.7043457 46.8034668 22 46 C20.27416992 43.90551758 20.27416992 43.90551758 18.73046875 41.14453125 C18.15506348 40.13535645 17.5796582 39.12618164 16.98681641 38.08642578 C16.39304199 37.00603027 15.79926758 35.92563477 15.1875 34.8125 C14.57310059 33.72437012 13.95870117 32.63624023 13.32568359 31.51513672 C12.10139627 29.3449705 10.88349283 27.17118904 9.67236328 24.99365234 C8.2426523 22.43436533 6.78881729 19.89354371 5.30859375 17.36328125 C4.93130127 16.71705811 4.55400879 16.07083496 4.1652832 15.4050293 C3.82198975 14.81761963 3.47869629 14.23020996 3.125 13.625 C0 8.25104603 0 8.25104603 0 6 C-16.335 6.495 -16.335 6.495 -33 7 C-32.67 5.68 -32.34 4.36 -32 3 C-27.65507229 1.86103837 -23.61379215 2.06899529 -19.1875 2.4375 C-18.14819336 2.51581055 -18.14819336 2.51581055 -17.08789062 2.59570312 C-15.39145563 2.72439819 -13.69565137 2.86136184 -12 3 C-12 2.34 -12 1.68 -12 1 C-6.06 0.505 -6.06 0.505 0 0 Z " fill="#AD9955" transform="translate(98,79)"/>
<path d="M0 0 C0.66 0 1.32 0 2 0 C3.20284401 2.07573081 4.38705701 4.15883095 5.5625 6.25 C5.90474609 6.83652344 6.24699219 7.42304687 6.59960938 8.02734375 C9.06382218 12.45794859 9.06382218 12.45794859 8.71484375 15.421875 C8.47894531 15.94265625 8.24304688 16.4634375 8 17 C6.02 13.535 6.02 13.535 4 10 C1.04814105 21.80743578 4.3939268 34.88835542 10.125 45.375 C17.29703533 56.56519466 26.44306456 63.03835319 38 69 C35.59647137 64.24125488 33.27911819 60.88261152 28.6875 58.0625 C20.55371732 53.04147941 13.91331286 45.21753086 11 36 C11.37890625 33.70703125 11.37890625 33.70703125 12 32 C12.27972656 32.6290625 12.55945313 33.258125 12.84765625 33.90625 C16.88400036 42.52403935 21.10928997 48.49789768 29.5 53.1875 C35.47720516 56.70978161 37.78448466 61.20694383 40.5625 67.3046875 C41.76503328 70.30404467 41.76503328 70.30404467 45 71 C45 70.34 45 69.68 45 69 C45.66 69 46.32 69 47 69 C47.33 69.99 47.66 70.98 48 72 C48.66 71.67 49.32 71.34 50 71 C50.433125 71.969375 50.86625 72.93875 51.3125 73.9375 C52.7014861 77.27731765 52.7014861 77.27731765 56 78 C56.350625 77.34 56.70125 76.68 57.0625 76 C59 74 59 74 62.4375 73.5625 C66.04146306 74.00509196 67.43015709 74.53295081 70 77 C69.41992188 77.01675781 68.83984375 77.03351563 68.2421875 77.05078125 C65.48254179 77.35589059 63.50691285 77.7730394 61 79 C58.43349211 82.42719538 56.67555232 86.07066555 55 90 C51.3392481 88.77974937 51.07660559 87.873509 49.3125 84.5625 C48.87550781 83.75941406 48.43851563 82.95632812 47.98828125 82.12890625 C47 80 47 80 47 78 C46.12601563 77.97873047 46.12601563 77.97873047 45.234375 77.95703125 C30.6347321 77.10768096 16.80696315 68.85929948 6.88671875 58.3359375 C1.40788139 51.55261506 -3.20704837 44.85648795 -4 36 C-4.99 36 -5.98 36 -7 36 C-7.33910994 33.95928485 -7.67102704 31.91737379 -8 29.875 C-8.185625 28.73804688 -8.37125 27.60109375 -8.5625 26.4296875 C-8.96956049 23.23862398 -9.07809902 20.21182209 -9 17 C-8.7525 17.61875 -8.505 18.2375 -8.25 18.875 C-6.77952822 21.37480203 -5.58596924 21.83316022 -3 23 C-3.03480469 22.34515625 -3.06960937 21.6903125 -3.10546875 21.015625 C-3.32618291 13.57440463 -2.08907962 7.12525372 0 0 Z " fill="#A17E3F" transform="translate(66,100)"/>
<path d="M0 0 C1.52352987 1.52352987 3.03832729 3.04152123 4.5 4.625 C6.0667759 6.248892 6.0667759 6.248892 9 7 C9.33 7.99 9.66 8.98 10 10 C10.66 10 11.32 10 12 10 C12.33 9.34 12.66 8.68 13 8 C13.51216064 8.9115686 13.51216064 8.9115686 14.03466797 9.84155273 C19.95635344 20.37263056 25.8855454 30.8948106 32.04614258 41.28833008 C36.60430853 48.99018422 41.05617983 56.75325525 45.50732422 64.51733398 C48.27731881 69.33692555 51.05581476 74.14127624 53.99609375 78.859375 C54.42656006 79.55272949 54.85702637 80.24608398 55.30053711 80.96044922 C56.40794828 82.72806949 57.53139314 84.48561755 58.65625 86.2421875 C60 89 60 89 59.71875 91.3828125 C59.4815625 91.91648437 59.244375 92.45015625 59 93 C58.67 91.68 58.34 90.36 58 89 C57.34 89 56.68 89 56 89 C56 89.66 56 90.32 56 91 C54.203125 90.83984375 54.203125 90.83984375 52 90 C50.296875 87.56640625 50.296875 87.56640625 48.75 84.5625 C47.96882813 83.07943359 47.96882813 83.07943359 47.171875 81.56640625 C46 79 46 79 46 77 C45.26523438 76.73316406 44.53046875 76.46632813 43.7734375 76.19140625 C34.77641758 72.32648924 26.80649107 64.02892326 23 55 C23 54.01 23 53.02 23 52 C22.34 52 21.68 52 21 52 C20.08221543 48.07922431 19.90773977 44.39321117 19.8125 40.375 C19.41642602 33.88758139 17.71252519 29.57333419 14.27734375 24.109375 C13 22 13 22 13 20 C12.34 20 11.68 20 11 20 C9.62440584 27.65257723 8.58006237 35.24548194 8 43 C6.125 42.8125 6.125 42.8125 4 42 C0.56897456 36.13337008 1.92246655 28.18872159 3.5546875 21.84375 C3.74289063 21.2765625 3.93109375 20.709375 4.125 20.125 C5.20251854 16.27671952 4.98357955 13.86406253 4 10 C2.69418644 7.9819245 1.36363208 5.97946592 0 4 C0 2.68 0 1.36 0 0 Z " fill="#A9813D" transform="translate(55,80)"/>
<path d="M0 0 C3.96202284 -0.99976277 7.0573794 -1.17143308 11 0 C14.34154611 3.62401493 16.37284264 7.92025991 18.58447266 12.28515625 C21.17383209 17.25129577 24.02292699 22.07307286 26.82339478 26.92214966 C27.87553443 28.75092892 28.91915987 30.58428612 29.9597168 32.41967773 C33.07326986 37.91120023 36.20692072 43.38425582 39.4765625 48.78515625 C39.99234863 49.64463867 40.50813477 50.50412109 41.03955078 51.38964844 C41.98095193 52.95141122 42.93422429 54.5061094 43.90185547 56.05175781 C46.581966 60.52312945 47.62935655 63.63355113 47 69 C45.6875 70.75 45.6875 70.75 44 72 C43.443125 72.556875 42.88625 73.11375 42.3125 73.6875 C41.879375 74.120625 41.44625 74.55375 41 75 C38.7124904 72.07024778 36.80021208 69.05999635 34.953125 65.8359375 C34.36273438 64.80871582 33.77234375 63.78149414 33.1640625 62.72314453 C32.53242187 61.61825684 31.90078125 60.51336914 31.25 59.375 C30.58621688 58.21842685 29.92214968 57.0620167 29.2578125 55.90576172 C27.87193181 53.49315079 26.48728813 51.0798363 25.10351562 48.66601562 C21.74665227 42.81268432 18.37253809 36.96930967 15 31.125 C14.40219727 30.08778809 13.80439453 29.05057617 13.18847656 27.98193359 C12.6106543 26.97984863 12.03283203 25.97776367 11.4375 24.9453125 C10.87683838 23.97078125 10.31617676 22.99625 9.73852539 21.9921875 C8.52018968 19.89530189 7.28623201 17.80745156 6.04077148 15.7265625 C5.40727783 14.664375 4.77378418 13.6021875 4.12109375 12.5078125 C3.54544678 11.55277832 2.9697998 10.59774414 2.37670898 9.61376953 C0.61922756 6.27707931 0.08501381 3.74060759 0 0 Z " fill="#9E7D40" transform="translate(84,95)"/>
<path d="M0 0 C1.31266846 -0.00833862 1.31266846 -0.00833862 2.65185547 -0.0168457 C8.4486193 0.04727052 13.63110626 0.88502801 19.25 2.3125 C19.25 2.9725 19.25 3.6325 19.25 4.3125 C20.508125 4.6425 21.76625 4.9725 23.0625 5.3125 C32.79837923 8.57310106 40.38806287 15.91969667 47.25 23.3125 C46.59 23.9725 45.93 24.6325 45.25 25.3125 C39.65726261 23.53299265 35.43241232 21.51961326 30.75 18 C17.52040792 8.61188947 3.9969973 7.18681609 -11.75 8.3125 C-21.50250639 9.98493395 -31.90079726 14.45474488 -38.96484375 21.53125 C-40.75 23.3125 -40.75 23.3125 -42.75 23.3125 C-43.08 24.9625 -43.41 26.6125 -43.75 28.3125 C-37.48 28.6425 -31.21 28.9725 -24.75 29.3125 C-24.75 29.6425 -24.75 29.9725 -24.75 30.3125 C-35.31 30.3125 -45.87 30.3125 -56.75 30.3125 C-56.09 31.3025 -55.43 32.2925 -54.75 33.3125 C-54.75 34.3025 -54.75 35.2925 -54.75 36.3125 C-56.235 36.8075 -56.235 36.8075 -57.75 37.3125 C-58.08 35.9925 -58.41 34.6725 -58.75 33.3125 C-59.3275 33.27125 -59.905 33.23 -60.5 33.1875 C-63.91879475 31.85796871 -64.97666645 29.41583371 -66.75 26.3125 C-66.75 25.6525 -66.75 24.9925 -66.75 24.3125 C-65.64140625 24.29832031 -64.5328125 24.28414062 -63.390625 24.26953125 C-61.92704216 24.22262154 -60.46350177 24.17437419 -59 24.125 C-57.90558594 24.11629883 -57.90558594 24.11629883 -56.7890625 24.10742188 C-53.04610206 23.95430077 -51.19862673 23.77868863 -48.5546875 21.03125 C-47.95914063 20.1340625 -47.36359375 19.236875 -46.75 18.3125 C-45.08429223 16.8258169 -43.37477284 15.38676027 -41.625 14 C-40.75617188 13.30261719 -39.88734375 12.60523437 -38.9921875 11.88671875 C-36.75 10.3125 -36.75 10.3125 -34.75 10.3125 C-34.75 9.6525 -34.75 8.9925 -34.75 8.3125 C-23.29964876 2.5070113 -12.79280897 0.0683209 0 0 Z " fill="#DEC86B" transform="translate(121.75,53.6875)"/>
<path d="M0 0 C10.56 0 21.12 0 32 0 C34.26875 4.104375 36.5375 8.20875 38.875 12.4375 C43.23250469 20.29771933 47.60015016 28.14594637 52.1875 35.875 C52.56672607 36.51574463 52.94595215 37.15648926 53.33666992 37.81665039 C54.12005916 39.13961644 54.90367358 40.46244917 55.6875 41.78515625 C56.120625 42.51605469 56.55375 43.24695313 57 44 C57.52851562 44.89074219 58.05703125 45.78148437 58.6015625 46.69921875 C60.307393 49.58511008 61.99856673 52.47919393 63.6875 55.375 C64.22979248 56.28620605 64.77208496 57.19741211 65.33081055 58.13623047 C66.07004761 59.41071045 66.07004761 59.41071045 66.82421875 60.7109375 C67.26854248 61.46681152 67.71286621 62.22268555 68.1706543 63.00146484 C69 65 69 65 68 68 C63.11609683 59.97928097 58.33974986 51.90120749 53.66455078 43.75683594 C52.3790204 41.5280587 51.08161946 39.30608972 49.77294922 37.09082031 C46.56394305 31.63194867 43.57740413 26.21535857 40.98828125 20.43359375 C37.15104131 11.8838458 37.15104131 11.8838458 31 5 C23.20835593 2.51191198 14.92558747 3.61430614 7 5 C7.34554932 5.59087402 7.69109863 6.18174805 8.04711914 6.79052734 C14.89736462 18.50843701 21.7251593 30.23832147 28.5 42 C33.5002743 50.678712 38.51767528 59.34709936 43.5625 68 C44.12195313 68.96035156 44.68140625 69.92070312 45.2578125 70.91015625 C46.06025391 72.28494141 46.06025391 72.28494141 46.87890625 73.6875 C47.3908252 74.56921875 47.90274414 75.4509375 48.43017578 76.359375 C49.51252255 78.18000683 50.62773338 79.98136403 51.76904297 81.765625 C52.32865723 82.64734375 52.88827148 83.5290625 53.46484375 84.4375 C53.97523193 85.21996094 54.48562012 86.00242187 55.01147461 86.80859375 C56 89 56 89 55.65844727 91.28515625 C55.44115967 91.85105469 55.22387207 92.41695313 55 93 C51.565281 91.85509367 51.44402795 91.51934223 49.86328125 88.4765625 C49.45907959 87.71649902 49.05487793 86.95643555 48.63842773 86.17333984 C48.20087158 85.3323877 47.76331543 84.49143555 47.3125 83.625 C42.74342672 75.07064024 37.91656017 66.69535795 32.9375 58.375 C27.9757207 50.06934057 23.10962789 41.72709528 18.45605469 33.24414062 C15.61380515 28.07245594 12.68096025 22.96065166 9.6875 17.875 C9.29062988 17.20001465 8.89375977 16.5250293 8.48486328 15.82958984 C6.05251257 11.71700359 3.53486841 7.67364876 0.92895508 3.66845703 C0 2 0 2 0 0 Z " fill="#030302" transform="translate(66,85)"/>
<path d="M0 0 C0.99 0.33 1.98 0.66 3 1 C3.19916016 2.07701172 3.19916016 2.07701172 3.40234375 3.17578125 C3.94954323 5.96238859 3.94954323 5.96238859 4.75390625 8.48046875 C7.0965004 16.32306655 9.86335353 30.27329295 6 38 C5.34 38 4.68 38 4 38 C3.731875 38.721875 3.46375 39.44375 3.1875 40.1875 C2 43 2 43 0.625 45.1875 C-1.73019622 49.26380115 -3.32079031 53.61018786 -5 58 C-5.66 58 -6.32 58 -7 58 C-7.309375 59.0209375 -7.309375 59.0209375 -7.625 60.0625 C-12.14101956 69.71035996 -22.23875023 76.39747711 -31.66015625 80.828125 C-34.83138613 81.94083724 -35.99255573 82.32327548 -39 81 C-37.96101562 80.52691406 -36.92203125 80.05382812 -35.8515625 79.56640625 C-21.4113646 72.80141019 -10.24614663 64.14021665 -3.6875 49.125 C0.83815267 36.46487679 -0.06239303 24.18579287 -1 11 C-9.16584681 19.00139573 -11.34348482 28.10187382 -13 39 C-14.216875 38.835 -15.43375 38.67 -16.6875 38.5 C-18.904174 38.38854476 -18.904174 38.38854476 -21 39 C-22.69272215 40.88617611 -23.74172379 42.79666967 -24.9140625 45.0390625 C-26.22394015 47.40438114 -27.80801988 48.46561392 -30 50 C-31.73490246 52.58443323 -31.73490246 52.58443323 -33 55 C-34 52 -34 52 -33.05957031 49.90283203 C-32.57069336 49.11247559 -32.08181641 48.32211914 -31.578125 47.5078125 C-31.04703125 46.63769531 -30.5159375 45.76757812 -29.96875 44.87109375 C-29.4015625 43.96488281 -28.834375 43.05867188 -28.25 42.125 C-27.69828125 41.22652344 -27.1465625 40.32804687 -26.578125 39.40234375 C-25.54273641 37.71734838 -24.50313978 36.03492638 -23.45800781 34.35595703 C-22.43121629 32.69679123 -21.43017839 31.02154924 -20.44824219 29.33544922 C-18.90012706 26.83894394 -17.06886158 25.06886158 -15 23 C-14.67 22.01 -14.34 21.02 -14 20 C-13.34 20 -12.68 20 -12 20 C-11.91492188 19.48695312 -11.82984375 18.97390625 -11.7421875 18.4453125 C-10.69256357 14.98707788 -8.91693117 11.9900058 -7.125 8.875 C-6.77308594 8.24207031 -6.42117187 7.60914062 -6.05859375 6.95703125 C-4.26178157 3.81094003 -3.06291655 2.04194437 0 0 Z " fill="#CDB259" transform="translate(175,89)"/>
<path d="M0 0 C10.01120143 0.79035801 20.23795492 7.46988313 26.6953125 14.96875 C27.22898437 15.5978125 27.76265625 16.226875 28.3125 16.875 C31.42132597 20.16799812 33.97387395 20.56640228 38.4375 20.9375 C40.29104575 20.98980865 42.14583878 21.0213122 44 21 C43.01 22.485 43.01 22.485 42 24 C42 23.34 42 22.68 42 22 C34.89622327 23.01791923 27.92488567 24.09905099 21 26 C20.505 24.02 20.505 24.02 20 22 C18.19015625 22.06960937 18.19015625 22.06960937 16.34375 22.140625 C14.72919164 22.17817287 13.11460622 22.21456977 11.5 22.25 C10.31277344 22.30027344 10.31277344 22.30027344 9.1015625 22.3515625 C1.72343287 22.47251544 -2.96852319 20.02098454 -9 16 C-5.13524923 16.39436232 -2.11823733 16.94625576 1.4375 18.5625 C5.69738212 20.2813998 8.45863788 20.23901906 13 20 C0.14499347 11.63448599 -12.56894915 7.23109067 -27.9921875 9.42578125 C-36.30577829 11.22301639 -45.87694562 14.87694562 -52 21 C-54.3828125 21.4140625 -54.3828125 21.4140625 -57.125 21.625 C-58.03507812 21.69976562 -58.94515625 21.77453125 -59.8828125 21.8515625 C-60.93082031 21.92503906 -60.93082031 21.92503906 -62 22 C-62 21.34 -62 20.68 -62 20 C-50.18005588 9.50025906 -37.02459524 3.58170421 -21.125 3.6875 C-20.23876953 3.69313965 -19.35253906 3.6987793 -18.43945312 3.70458984 C-12.17363056 3.82117939 -6.75823853 4.38083529 -1 7 C-0.00613281 7.43699219 0.98773438 7.87398438 2.01171875 8.32421875 C7.54197051 10.91588655 12.07778104 13.64807892 16.5390625 17.8046875 C18.59210141 19.48444661 20.37460744 19.92498878 23 20 C23.99 19.505 23.99 19.505 25 19 C25.99 19.99 25.99 19.99 27 21 C19.47133373 11.54090649 10.93228381 6.04993821 0 1 C0 0.67 0 0.34 0 0 Z " fill="#050503" transform="translate(141,57)"/>
<path d="M0 0 C2.0625 0.4375 2.0625 0.4375 4 1 C3.46635671 5.81857784 2.07375175 9.11010207 -0.37890625 13.2734375 C-0.87619484 14.12634872 -0.87619484 14.12634872 -1.38352966 14.99649048 C-2.43455229 16.7945607 -3.49822732 18.58474733 -4.5625 20.375 C-5.2814515 21.59976036 -5.99955925 22.82501643 -6.71679688 24.05078125 C-8.46814476 27.03964851 -10.23091412 30.02158922 -12 33 C-14.37109375 33.16015625 -14.37109375 33.16015625 -17 33 C-19.0625 30.4375 -19.0625 30.4375 -21 27 C-21.34393799 26.40928711 -21.68787598 25.81857422 -22.04223633 25.20996094 C-23.54649461 22.62315941 -24.9963679 20.00653974 -26.44921875 17.390625 C-27.78142457 15.01037801 -27.78142457 15.01037801 -30 12 C-32.57444151 11.25223334 -32.57444151 11.25223334 -35 11 C-34.53625977 11.81154541 -34.07251953 12.62309082 -33.59472656 13.45922852 C-28.72981771 21.97281901 -23.86490885 30.48640951 -19 39 C-18.60325073 39.6072995 -18.20650146 40.214599 -17.79772949 40.84030151 C-16.63183594 42.67553711 -16.63183594 42.67553711 -15 46 C-15.75 48.4375 -15.75 48.4375 -17 50 C-22.21725318 42.52653654 -26.70959655 34.67600216 -31.1875 26.75 C-32.25682001 24.86424461 -33.32708328 22.97902842 -34.39778137 21.09405518 C-35.36208658 19.39531801 -36.32405973 17.69525764 -37.28588867 15.99511719 C-38.39705608 14.05354166 -39.54143379 12.13045472 -40.72387695 10.23144531 C-42 8 -42 8 -42 6 C-37.54470275 4.57809662 -34.40845019 4.32200882 -30 6 C-25.44727413 11.03397039 -18 20.99681474 -18 28 C-15.20854533 25.50382577 -13.53721365 22.72840847 -11.6796875 19.4921875 C-11.06222656 18.42355469 -10.44476563 17.35492188 -9.80859375 16.25390625 C-9.17050781 15.13886719 -8.53242188 14.02382812 -7.875 12.875 C-6.60284283 10.66332556 -5.32947207 8.45234858 -4.0546875 6.2421875 C-3.49249512 5.2610498 -2.93030273 4.27991211 -2.35107422 3.26904297 C-1 1 -1 1 0 0 Z " fill="#040302" transform="translate(156,95)"/>
<path d="M0 0 C0.66 0 1.32 0 2 0 C3.60300271 6.78193453 3.60300271 6.78193453 2.0234375 9.97265625 C1.58257812 10.64167969 1.14171875 11.31070313 0.6875 12 C-1.93647132 16.15402544 -2.49427808 19.88060083 -2.875 24.6875 C-4.05763455 37.62067019 -10.3460444 48.31143996 -20 57 C-22.3319332 58.63825687 -24.70409071 60.14580141 -27.13671875 61.62890625 C-29.77711624 63.57184025 -30.63546459 66.07599555 -32 69 C-35.25466136 71.03416335 -37.1544104 72 -41 72 C-37.89166412 63.67086695 -33.80775502 56.33096954 -25.84375 52.02734375 C-18.32227642 47.83635317 -12.77109352 38.81866716 -9.78515625 30.9609375 C-8.83395172 27.37380797 -8.51550089 23.80763434 -8.1875 20.125 C-7.46777494 12.24158664 -5.04236994 6.27917766 0 0 Z " fill="#040402" transform="translate(172,100)"/>
<path d="M0 0 C0.66 0 1.32 0 2 0 C3.20284401 2.07573081 4.38705701 4.15883095 5.5625 6.25 C6.07586914 7.12978516 6.07586914 7.12978516 6.59960938 8.02734375 C9.06382218 12.45794859 9.06382218 12.45794859 8.71484375 15.421875 C8.47894531 15.94265625 8.24304688 16.4634375 8 17 C6.02 13.535 6.02 13.535 4 10 C1.04814105 21.80743578 4.3939268 34.88835542 10.125 45.375 C17.29703533 56.56519466 26.44306456 63.03835319 38 69 C35.59647137 64.24125488 33.27911819 60.88261152 28.6875 58.0625 C20.55371732 53.04147941 13.91331286 45.21753086 11 36 C11.37890625 33.70703125 11.37890625 33.70703125 12 32 C12.27972656 32.6290625 12.55945313 33.258125 12.84765625 33.90625 C16.88177694 42.51929224 21.07613255 48.49764267 29.5 53.125 C36.59246446 57.302217 39.01523045 63.65522578 42 71 C28.50727806 69.62843996 17.67173593 61.71828274 9.0078125 51.6953125 C0.91329988 41.09949126 -2.17742646 28.64802897 -2.1875 15.5625 C-2.19974609 14.72912109 -2.21199219 13.89574219 -2.22460938 13.03710938 C-2.23588393 8.28300346 -1.83808947 4.46808311 0 0 Z " fill="#050403" transform="translate(66,100)"/>
<path d="M0 0 C1.390625 2.203125 1.390625 2.203125 2.390625 5.203125 C1.43432617 7.37963867 1.43432617 7.37963867 -0.06640625 9.87109375 C-0.60201172 10.76376953 -1.13761719 11.65644531 -1.68945312 12.57617188 C-2.26115234 13.50494141 -2.83285156 14.43371094 -3.421875 15.390625 C-3.98197266 16.33099609 -4.54207031 17.27136719 -5.11914062 18.24023438 C-8.23897933 23.38032705 -8.23897933 23.38032705 -9.609375 25.203125 C-10.269375 25.203125 -10.929375 25.203125 -11.609375 25.203125 C-11.91004883 24.57220947 -12.21072266 23.94129395 -12.52050781 23.29125977 C-13.92023391 20.42383145 -15.38793103 17.59687354 -16.859375 14.765625 C-17.33117187 13.77240234 -17.80296875 12.77917969 -18.2890625 11.75585938 C-19.85890511 8.80737293 -21.20708261 6.53277189 -23.609375 4.203125 C-27.67364222 3.04492409 -31.40844272 2.93466051 -35.609375 3.203125 C-35.609375 2.873125 -35.609375 2.543125 -35.609375 2.203125 C-34.82691406 2.15414062 -34.04445313 2.10515625 -33.23828125 2.0546875 C-32.22636719 1.97992188 -31.21445313 1.90515625 -30.171875 1.828125 C-29.16253906 1.75851563 -28.15320313 1.68890625 -27.11328125 1.6171875 C-25.87384766 1.41222656 -25.87384766 1.41222656 -24.609375 1.203125 C-24.279375 0.543125 -23.949375 -0.116875 -23.609375 -0.796875 C-20.19466054 -1.08128548 -16.77824836 -1.31835267 -13.359375 -1.546875 C-11.90724609 -1.66869141 -11.90724609 -1.66869141 -10.42578125 -1.79296875 C-3.25045041 -2.23833411 -3.25045041 -2.23833411 0 0 Z " fill="#C8A94F" transform="translate(149.609375,97.796875)"/>
<path d="M0 0 C1.52352987 1.52352987 3.03832729 3.04152123 4.5 4.625 C6.0667759 6.248892 6.0667759 6.248892 9 7 C9.33 7.99 9.66 8.98 10 10 C10.66 10 11.32 10 12 10 C12.33 9.34 12.66 8.68 13 8 C15.1066405 11.70693315 17.20986997 15.41579081 19.3125 19.125 C19.90740234 20.17171875 20.50230469 21.2184375 21.11523438 22.296875 C21.69208984 23.31523438 22.26894531 24.33359375 22.86328125 25.3828125 C23.39219971 26.31496582 23.92111816 27.24711914 24.46606445 28.20751953 C26.05629496 31.10248316 27.54136833 34.03685571 29 37 C28.01 37.495 28.01 37.495 27 38 C26.34 37.01 25.68 36.02 25 35 C24.01 35 23.02 35 22 35 C22 38.3 22 41.6 22 45 C21.34 44.67 20.68 44.34 20 44 C19.796875 41.8828125 19.796875 41.8828125 19.75 39.125 C19.35586803 33.21302038 17.32993626 29.22109547 14.27734375 24.21484375 C13 22 13 22 13 20 C12.34 20 11.68 20 11 20 C9.62440584 27.65257723 8.58006237 35.24548194 8 43 C6.125 42.8125 6.125 42.8125 4 42 C0.56897456 36.13337008 1.92246655 28.18872159 3.5546875 21.84375 C3.74289063 21.2765625 3.93109375 20.709375 4.125 20.125 C5.20251854 16.27671952 4.98357955 13.86406253 4 10 C2.69418644 7.9819245 1.36363208 5.97946592 0 4 C0 2.68 0 1.36 0 0 Z " fill="#C4A85B" transform="translate(55,80)"/>
<path d="M0 0 C0.33 0 0.66 0 1 0 C1.45775876 12.58836591 -2.04109625 24.24125402 -10.140625 34.01953125 C-14.57818694 38.74609407 -18.49554026 41.09240097 -25 42 C-25.66 42.99 -26.32 43.98 -27 45 C-27.66 44.67 -28.32 44.34 -29 44 C-28.34 41.36 -27.68 38.72 -27 36 C-26.34 36 -25.68 36 -25 36 C-24.505 33.03 -24.505 33.03 -24 30 C-23.01 29.67 -22.02 29.34 -21 29 C-19.97388051 27.34928604 -18.97691857 25.68029994 -18 24 C-16.66666667 22.66666667 -15.33333333 21.33333333 -14 20 C-12.63178949 18.02369593 -11.29048808 16.02790984 -10 14 C-7.36 14.33 -4.72 14.66 -2 15 C-2.04125 14.195625 -2.0825 13.39125 -2.125 12.5625 C-1.9720219 8.20262407 -1.05024765 4.21974503 0 0 Z " fill="#B08635" transform="translate(164,113)"/>
<path d="M0 0 C5.94 0.99 5.94 0.99 12 2 C12 2.66 12 3.32 12 4 C13.258125 4.33 14.51625 4.66 15.8125 5 C25.54837923 8.26060106 33.13806287 15.60719667 40 23 C39.34 23.66 38.68 24.32 38 25 C32.40726261 23.22049265 28.18241232 21.20711326 23.5 17.6875 C13.72976864 10.75425434 3.94057474 8.03845353 -7.8125 7.4375 C-8.60076172 7.39431641 -9.38902344 7.35113281 -10.20117188 7.30664062 C-12.13394215 7.20121679 -14.06695026 7.10016906 -16 7 C-16 6.67 -16 6.34 -16 6 C-15.2575 5.87625 -14.515 5.7525 -13.75 5.625 C-11.18058185 5.04104133 -9.29101065 4.26400588 -7 3 C-4.37684968 1.68842484 -2.76966564 2.10350012 0.125 2.4375 C1.03507812 2.53933594 1.94515625 2.64117187 2.8828125 2.74609375 C3.58148438 2.82988281 4.28015625 2.91367187 5 3 C3.35 2.34 1.7 1.68 0 1 C0 0.67 0 0.34 0 0 Z " fill="#D8CA78" transform="translate(129,54)"/>
<path d="M0 0 C3.07421875 -0.68359375 3.07421875 -0.68359375 7 0 C9.87671787 3.28779362 11.77894391 7.08914262 13.8125 10.9375 C15.02794995 13.13710342 16.24410087 15.33631965 17.4609375 17.53515625 C18.05487305 18.62844238 18.64880859 19.72172852 19.26074219 20.84814453 C22.09848701 25.99066077 25.16421422 30.99510964 28.2434082 35.99584961 C29.2223596 37.62936004 30.12093067 39.31063939 31 41 C30.67 41.66 30.34 42.32 30 43 C28.68 42.34 27.36 41.68 26 41 C26.350625 41.598125 26.70125 42.19625 27.0625 42.8125 C28 45 28 45 27 48 C26.59797363 47.30140869 26.19594727 46.60281738 25.78173828 45.88305664 C24.24125125 43.20709223 22.70011741 40.53150172 21.15847778 37.85620117 C20.47133735 36.66360215 19.78438563 35.47089437 19.09762573 34.27807617 C15.68651256 28.35435736 12.27169576 22.43378656 8.77734375 16.55859375 C8.31247559 15.77669678 7.84760742 14.9947998 7.36865234 14.18920898 C6.51476291 12.75802644 5.65716445 11.32904861 4.79541016 9.90258789 C2 5.21772093 2 5.21772093 2 3 C1.34 3 0.68 3 0 3 C0 2.01 0 1.02 0 0 Z " fill="#A28347" transform="translate(84,95)"/>
<path d="M0 0 C23.1 0 46.2 0 70 0 C69.34 1.32 68.68 2.64 68 4 C47.87 4 27.74 4 7 4 C7.99 5.98 8.98 7.96 10 10 C8.35 9.67 6.7 9.34 5 9 C3.35 6.03 1.7 3.06 0 0 Z " fill="#000000" transform="translate(104,85)"/>
<path d="M0 0 C2.28369141 0.16821289 2.28369141 0.16821289 5 1 C6.79833984 3.27124023 6.79833984 3.27124023 8.4609375 6.30859375 C9.09032227 7.43628174 9.71970703 8.56396973 10.36816406 9.72583008 C11.0372696 10.96296674 11.70621103 12.20019217 12.375 13.4375 C13.07337147 14.6998226 13.77359127 15.96112426 14.47558594 17.22143555 C15.929162 19.83332229 17.37538632 22.44908746 18.81738281 25.06738281 C22.20673467 31.19968519 25.73343466 37.25260301 29.25 43.3125 C31.00948211 46.35599657 32.76797621 49.40000537 34.52050781 52.44750977 C35.43860159 54.03144878 36.36815419 55.60887565 37.31542969 57.17553711 C40.02588052 61.69590387 40.02588052 61.69590387 39.75 64.9375 C39.37875 65.9584375 39.37875 65.9584375 39 67 C36.20436225 64.50615208 34.56746596 61.74784919 32.734375 58.49609375 C32.09862549 57.37509277 31.46287598 56.2540918 30.80786133 55.09912109 C30.121837 53.87862038 29.43588496 52.65807904 28.75 51.4375 C27.67867978 49.54291764 26.60568878 47.64928837 25.532547 45.7557373 C24.7956604 44.45534799 24.05932826 43.15464433 23.3235321 41.8536377 C20.83606532 37.45914827 18.32138297 33.08135688 15.78515625 28.71484375 C15.28008041 27.8444471 15.28008041 27.8444471 14.76480103 26.95646667 C13.16703441 24.20404524 11.56636908 21.4533628 9.96191406 18.70483398 C6.40580939 12.57465967 3.08055706 6.38297761 0 0 Z " fill="#040302" transform="translate(91,95)"/>
<path d="M0 0 C0.45375 0.495 0.9075 0.99 1.375 1.5 C2.87635519 3.22609337 2.87635519 3.22609337 5 3 C5.28875 4.0725 5.5775 5.145 5.875 6.25 C6.74303183 9.14343944 7.63815776 11.36143066 9 14 C9.28875 14.99 9.5775 15.98 9.875 17 C10.79827106 20.09138148 10.79827106 20.09138148 13.125 22.125 C15 24 15 24 15 28 C14.34 28 13.68 28 13 28 C13 28.66 13 29.32 13 30 C12.01 29.67 11.02 29.34 10 29 C8.8125 26.4375 8.8125 26.4375 8 24 C8 25.65 8 27.3 8 29 C7.01 29 6.02 29 5 29 C4.67 28.01 4.34 27.02 4 26 C3.34 25.67 2.68 25.34 2 25 C0.96484375 22.890625 0.96484375 22.890625 -0.0625 20.25 C-0.40410156 19.38890625 -0.74570313 18.5278125 -1.09765625 17.640625 C-2.53487663 13.43473332 -3.12873077 9.62496165 -3.0625 5.1875 C-3.05347656 4.39730469 -3.04445313 3.60710937 -3.03515625 2.79296875 C-3.02355469 2.20128906 -3.01195313 1.60960938 -3 1 C-2.01 0.67 -1.02 0.34 0 0 Z " fill="#B38834" transform="translate(80,114)"/>
<path d="M0 0 C0.66 0.33 1.32 0.66 2 1 C2.31241455 3.71446979 2.51336592 6.33909361 2.625 9.0625 C2.68300781 10.20041992 2.68300781 10.20041992 2.7421875 11.36132812 C2.83673562 13.24047195 2.91946756 15.12020336 3 17 C4.135323 13.19251434 5.20851356 9.5191212 5.625 5.5625 C5.810625 3.7990625 5.810625 3.7990625 6 2 C6.33 2 6.66 2 7 2 C7.02689449 4.95839355 7.04678741 7.91654427 7.0625 10.875 C7.07087891 11.71675781 7.07925781 12.55851562 7.08789062 13.42578125 C7.09111328 14.23144531 7.09433594 15.03710938 7.09765625 15.8671875 C7.10289307 16.61081543 7.10812988 17.35444336 7.11352539 18.12060547 C7 20 7 20 6 22 C5.34 22 4.68 22 4 22 C3.731875 22.721875 3.46375 23.44375 3.1875 24.1875 C2 27 2 27 0.625 29.1875 C-1.73019622 33.26380115 -3.32079031 37.61018786 -5 42 C-5.66 42 -6.32 42 -7 42 C-7.309375 43.0209375 -7.309375 43.0209375 -7.625 44.0625 C-12.14101956 53.71035996 -22.23875023 60.39747711 -31.66015625 64.828125 C-34.83138613 65.94083724 -35.99255573 66.32327548 -39 65 C-37.96101562 64.52691406 -36.92203125 64.05382812 -35.8515625 63.56640625 C-21.4113646 56.80141019 -10.24614663 48.14021665 -3.6875 33.125 C0.23823704 22.274465 0.25973594 11.3706621 0 0 Z " fill="#AA9057" transform="translate(175,105)"/>
<path d="M0 0 C10.01120143 0.79035801 20.23795492 7.46988313 26.6953125 14.96875 C27.22898438 15.5978125 27.76265625 16.226875 28.3125 16.875 C31.42132597 20.16799812 33.97387395 20.56640228 38.4375 20.9375 C40.29104575 20.98980865 42.14583878 21.0213122 44 21 C43.34 21.99 42.68 22.98 42 24 C42 23.34 42 22.68 42 22 C34.89622327 23.01791923 27.92488567 24.09905099 21 26 C20.67 24.68 20.34 23.36 20 22 C18.19015625 22.06960937 18.19015625 22.06960937 16.34375 22.140625 C14.72919164 22.17817287 13.11460622 22.21456977 11.5 22.25 C10.31277344 22.30027344 10.31277344 22.30027344 9.1015625 22.3515625 C1.72343287 22.47251544 -2.96852319 20.02098454 -9 16 C-5.23054443 16.38463832 -2.3347131 16.82922801 1.0625 18.5625 C6.547037 21.14123873 13.09609024 20.39818847 19 20 C19.66 19.67 20.32 19.34 21 19 C24 19 24 19 27 21 C19.47133373 11.54090649 10.93228381 6.04993821 0 1 C0 0.67 0 0.34 0 0 Z " fill="#A69857" transform="translate(141,57)"/>
<path d="M0 0 C0 0.33 0 0.66 0 1 C-1.48113281 0.87431641 -1.48113281 0.87431641 -2.9921875 0.74609375 C-4.27351563 0.64425781 -5.55484375 0.54242188 -6.875 0.4375 C-8.15117187 0.33308594 -9.42734375 0.22867188 -10.7421875 0.12109375 C-13.88643942 -0.25683367 -13.88643942 -0.25683367 -16 1 C-15.01 1.66 -14.02 2.32 -13 3 C-20.92 3.495 -20.92 3.495 -29 4 C-28.67 3.34 -28.34 2.68 -28 2 C-31.96 2 -35.92 2 -40 2 C-40 2.66 -40 3.32 -40 4 C-40.6290625 4.21914063 -41.258125 4.43828125 -41.90625 4.6640625 C-51.4855748 8.21302922 -58.03460326 13.64279969 -65 21 C-65 18 -65 18 -62.9375 15.6875 C-53.44186047 7 -53.44186047 7 -51 7 C-51 6.34 -51 5.68 -51 5 C-35.69303848 -2.76084422 -16.37320984 -7.27698215 0 0 Z " fill="#EBE299" transform="translate(138,57)"/>
<path d="M0 0 C0.66 0.33 1.32 0.66 2 1 C2.08333357 5.8333472 1.95261487 10.23692563 1 15 C-0.216875 14.835 -1.43375 14.67 -2.6875 14.5 C-4.904174 14.38854476 -4.904174 14.38854476 -7 15 C-8.69272215 16.88617611 -9.74172379 18.79666967 -10.9140625 21.0390625 C-12.22394015 23.40438114 -13.80801988 24.46561392 -16 26 C-17.73490246 28.58443323 -17.73490246 28.58443323 -19 31 C-20 28 -20 28 -19.05957031 25.90283203 C-18.57069336 25.11247559 -18.08181641 24.32211914 -17.578125 23.5078125 C-17.04703125 22.63769531 -16.5159375 21.76757812 -15.96875 20.87109375 C-15.4015625 19.96488281 -14.834375 19.05867188 -14.25 18.125 C-13.69828125 17.22652344 -13.1465625 16.32804687 -12.578125 15.40234375 C-11.54273641 13.71734838 -10.50313978 12.03492638 -9.45800781 10.35595703 C-8.41766783 8.67489861 -7.41860091 6.96800747 -6.44824219 5.24560547 C-5 3 -5 3 -2.875 2.3125 C-2.25625 2.209375 -1.6375 2.10625 -1 2 C-0.67 1.34 -0.34 0.68 0 0 Z " fill="#BC943E" transform="translate(161,113)"/>
<path d="M0 0 C1.65 0 3.3 0 5 0 C8.96 6.93 12.92 13.86 17 21 C16.34 21.66 15.68 22.32 15 23 C14.34 22.01 13.68 21.02 13 20 C12.01 20 11.02 20 10 20 C10 23.3 10 26.6 10 30 C9.34 29.67 8.68 29.34 8 29 C7.796875 26.8828125 7.796875 26.8828125 7.75 24.125 C7.35586803 18.21302038 5.32993626 14.22109547 2.27734375 9.21484375 C1 7 1 7 1 5 C0.34 5 -0.32 5 -1 5 C-0.67 3.35 -0.34 1.7 0 0 Z " fill="#BCA359" transform="translate(67,95)"/>
<path d="M0 0 C2.75746999 3.30538577 5.02895473 6.58942457 7.1015625 10.359375 C7.66883057 11.38377686 8.23609863 12.40817871 8.82055664 13.46362305 C9.41602295 14.54812744 10.01148926 15.63263184 10.625 16.75 C11.88536208 19.02288825 13.14708431 21.29502279 14.41015625 23.56640625 C15.0252002 24.67258301 15.64024414 25.77875977 16.27392578 26.91845703 C18.4879127 30.87106564 20.75605089 34.78828454 23.0625 38.6875 C23.4433374 39.33380371 23.8241748 39.98010742 24.21655273 40.64599609 C26.62792721 44.72356508 29.07803943 48.77643173 31.5390625 52.82421875 C32.14355225 53.82686768 32.74804199 54.8295166 33.37084961 55.86254883 C34.56352214 57.84029191 35.76460928 59.8129898 36.97485352 61.7800293 C37.51295654 62.6750415 38.05105957 63.57005371 38.60546875 64.4921875 C39.09168701 65.28995605 39.57790527 66.08772461 40.07885742 66.90966797 C41 69 41 69 40 72 C37.7124904 69.07024778 35.80021208 66.05999635 33.953125 62.8359375 C33.36273438 61.80871582 32.77234375 60.78149414 32.1640625 59.72314453 C31.53242187 58.61825684 30.90078125 57.51336914 30.25 56.375 C29.58621688 55.21842685 28.92214968 54.0620167 28.2578125 52.90576172 C26.87193181 50.49315079 25.48728813 48.0798363 24.10351562 45.66601562 C20.74665227 39.81268432 17.37253809 33.96930967 14 28.125 C13.40219727 27.08778809 12.80439453 26.05057617 12.18847656 24.98193359 C11.6106543 23.97984863 11.03283203 22.97776367 10.4375 21.9453125 C9.59832031 20.48399902 9.59832031 20.48399902 8.7421875 18.99316406 C7.51769264 16.88942149 6.27081211 14.79862721 5.0078125 12.71777344 C4.04488281 11.1211084 4.04488281 11.1211084 3.0625 9.4921875 C2.47597656 8.53425293 1.88945313 7.57631836 1.28515625 6.58935547 C0 4 0 4 0 0 Z " fill="#040302" transform="translate(85,98)"/>
<path d="M0 0 C3.13242338 3.92597063 5.6677692 8.20357644 8.25 12.5 C8.72179687 13.25925781 9.19359375 14.01851562 9.6796875 14.80078125 C10.12054688 15.53683594 10.56140625 16.27289063 11.015625 17.03125 C11.42071289 17.69705078 11.82580078 18.36285156 12.24316406 19.04882812 C13.16981905 21.43780447 12.84564821 22.62583272 12 25 C8.89764743 24.69417131 7.42104601 24.4752171 5.31494141 22.09814453 C4.59056885 20.87780518 4.59056885 20.87780518 3.8515625 19.6328125 C3.32175781 18.74722656 2.79195313 17.86164063 2.24609375 16.94921875 C1.44365234 15.55123047 1.44365234 15.55123047 0.625 14.125 C0.06683594 13.20074219 -0.49132812 12.27648437 -1.06640625 11.32421875 C-4.06543234 6.2221719 -4.06543234 6.2221719 -5 4 C-4.67 3.01 -4.34 2.02 -4 1 C-2.02 1.495 -2.02 1.495 0 2 C0 1.34 0 0.68 0 0 Z " fill="#B79C57" transform="translate(113,101)"/>
<path d="M0 0 C-0.53200703 4.52205979 -2.12298268 7.4836455 -5 11 C-6.17755859 11.12181641 -6.17755859 11.12181641 -7.37890625 11.24609375 C-10.33028479 11.80200944 -10.33028479 11.80200944 -12.16796875 15.01953125 C-12.85840665 16.27451146 -13.53110841 17.53938182 -14.1875 18.8125 C-14.52974609 19.44220703 -14.87199219 20.07191406 -15.22460938 20.72070312 C-16.87887773 23.78190262 -18.46598564 26.8769041 -20 30 C-20.66 30 -21.32 30 -22 30 C-22.12375 30.598125 -22.2475 31.19625 -22.375 31.8125 C-23 34 -23 34 -25 37 C-25.66 36.67 -26.32 36.34 -27 36 C-24.90169213 32.35138155 -22.80204789 28.70353652 -20.70117188 25.05639648 C-19.98693827 23.81604751 -19.2730677 22.57548941 -18.55957031 21.3347168 C-17.53285999 19.5494134 -16.50483853 17.7648707 -15.4765625 15.98046875 C-14.85861816 14.90692139 -14.24067383 13.83337402 -13.60400391 12.72729492 C-12.46050684 10.78300181 -11.25119773 8.8767966 -10 7 C-9.34 7 -8.68 7 -8 7 C-8.33 6.34 -8.66 5.68 -9 5 C-11.58605332 4.5316735 -11.58605332 4.5316735 -14.5625 4.375 C-15.57441406 4.30023438 -16.58632812 4.22546875 -17.62890625 4.1484375 C-18.80259766 4.07496094 -18.80259766 4.07496094 -20 4 C-20 3.67 -20 3.34 -20 3 C-13.12418702 0.8408662 -7.21471629 -0.35482211 0 0 Z " fill="#CDBC6E" transform="translate(183,79)"/>
<path d="M0 0 C7.12041698 -0.49533336 10.67744626 2.6325671 16 7 C18.77385498 9.57252679 21.42411569 12.22984509 24 15 C23.34 15.66 22.68 16.32 22 17 C16.05843883 15.10950326 11.43068897 12.76134891 6.3125 9.1875 C4.85263672 8.18783203 4.85263672 8.18783203 3.36328125 7.16796875 C0.72072087 4.74380179 0.26365668 3.5133786 0 0 Z " fill="#D4C67C" transform="translate(145,62)"/>
<path d="M0 0 C2.31 0 4.62 0 7 0 C8.37864791 2.17506596 9.72664879 4.36135619 11.0625 6.5625 C11.45244141 7.17158203 11.84238281 7.78066406 12.24414062 8.40820312 C14.95771336 12.94683363 15.30734413 15.68164193 14 21 C9.46510665 19.52922378 7.88995913 15.94703573 5.75 12 C5.38648437 11.35804687 5.02296875 10.71609375 4.6484375 10.0546875 C2 5.29546523 2 5.29546523 2 3 C1.34 3 0.68 3 0 3 C0 2.01 0 1.02 0 0 Z " fill="#C1A55D" transform="translate(84,95)"/>
<path d="M0 0 C0.33 0 0.66 0 1 0 C1.36844925 10.13235449 -0.45809698 21.70111314 -7.25 29.625 C-8.11625 30.305625 -8.11625 30.305625 -9 31 C-9.125 24.25 -9.125 24.25 -8 22 C-8.66 21.67 -9.32 21.34 -10 21 C-9.1875 18.0625 -9.1875 18.0625 -8 15 C-5 14 -5 14 -2 15 C-2.04125 14.195625 -2.0825 13.39125 -2.125 12.5625 C-1.9720219 8.20262407 -1.05024765 4.21974503 0 0 Z " fill="#A68242" transform="translate(164,113)"/>
<path d="M0 0 C0.33 0 0.66 0 1 0 C1.12117188 1.2065625 1.24234375 2.413125 1.3671875 3.65625 C1.53615881 5.27086471 1.70544656 6.88544632 1.875 8.5 C1.95363281 9.29148437 2.03226563 10.08296875 2.11328125 10.8984375 C2.66655089 16.09066024 3.6248235 20.96153821 5 26 C4.34 26.33 3.68 26.66 3 27 C2.34 24.69 1.68 22.38 1 20 C0.34 20 -0.32 20 -1 20 C-1 21.32 -1 22.64 -1 24 C-1.99 24 -2.98 24 -4 24 C-4.33910994 21.95928485 -4.67102704 19.91737379 -5 17.875 C-5.185625 16.73804688 -5.37125 15.60109375 -5.5625 14.4296875 C-5.96956049 11.23862398 -6.07809902 8.21182209 -6 5 C-5.7525 5.61875 -5.505 6.2375 -5.25 6.875 C-3.98960746 9.45868886 -3.98960746 9.45868886 0 11 C0 7.37 0 3.74 0 0 Z " fill="#9D8146" transform="translate(63,112)"/>
<path d="M0 0 C0.45375 0.495 0.9075 0.99 1.375 1.5 C2.87635519 3.22609337 2.87635519 3.22609337 5 3 C7.42857143 10.42857143 7.42857143 10.42857143 6 14 C3.36 14 0.72 14 -2 14 C-2.8723412 11.00519083 -3.10829766 8.36424089 -3.0625 5.25 C-3.05347656 4.45078125 -3.04445313 3.6515625 -3.03515625 2.828125 C-3.02355469 2.22484375 -3.01195313 1.6215625 -3 1 C-2.01 0.67 -1.02 0.34 0 0 Z " fill="#B99240" transform="translate(80,114)"/>
<path d="M0 0 C3.61639741 5.42459612 2.60582229 13.13633743 1.6171875 19.44140625 C1.125 21.3125 1.125 21.3125 0 24 C-0.66 24.33 -1.32 24.66 -2 25 C-2.33 19.39 -2.66 13.78 -3 8 C-3.66 7.67 -4.32 7.34 -5 7 C-5 5.35 -5 3.7 -5 2 C-4.01 1.67 -3.02 1.34 -2 1 C-1.67 1.66 -1.34 2.32 -1 3 C-0.67 2.01 -0.34 1.02 0 0 Z " fill="#C8A953" transform="translate(179,98)"/>
<path d="M0 0 C0.89203125 0.00902344 1.7840625 0.01804687 2.703125 0.02734375 C3.37859375 0.03894531 4.0540625 0.05054687 4.75 0.0625 C1.24592288 2.39855141 -2.15092171 3.13737552 -6.1875 4.0625 C-11.42719793 5.17919985 -11.42719793 5.17919985 -16.36328125 7.1796875 C-19.10010295 8.46027074 -21.50323931 8.25264697 -24.5 8.1875 C-25.57765625 8.16945313 -26.6553125 8.15140625 -27.765625 8.1328125 C-28.58546875 8.10960938 -29.4053125 8.08640625 -30.25 8.0625 C-30.25 8.7225 -30.25 9.3825 -30.25 10.0625 C-32.89 10.0625 -35.53 10.0625 -38.25 10.0625 C-37.92 9.0725 -37.59 8.0825 -37.25 7.0625 C-33.30718594 6.15090953 -29.5384884 5.90705233 -25.5 5.75 C-20.05867909 5.40207487 -15.92795839 4.54577759 -11.1171875 2 C-7.41461156 0.14096605 -4.10650214 -0.05403292 0 0 Z " fill="#D8C276" transform="translate(116.25,71.9375)"/>
<path d="M0 0 C1.52352987 1.52352987 3.03832729 3.04152123 4.5 4.625 C6.0667759 6.248892 6.0667759 6.248892 9 7 C9.33 7.99 9.66 8.98 10 10 C10.66 10 11.32 10 12 10 C12.33 9.34 12.66 8.68 13 8 C13.99 9.98 14.98 11.96 16 14 C15.01 14 14.02 14 13 14 C13 13.01 13 12.02 13 11 C11.68 11.33 10.36 11.66 9 12 C8.87882812 12.58007812 8.75765625 13.16015625 8.6328125 13.7578125 C7.66264526 18.28028442 6.56602217 22.63750966 5 27 C4.34 27 3.68 27 3 27 C3.15597656 26.35933594 3.31195313 25.71867187 3.47265625 25.05859375 C4.66932324 19.74095434 5.44732962 15.37579573 4 10 C2.69418644 7.9819245 1.36363208 5.97946592 0 4 C0 2.68 0 1.36 0 0 Z " fill="#C2AE65" transform="translate(55,80)"/>
<path d="M0 0 C1.17755859 -0.02126953 1.17755859 -0.02126953 2.37890625 -0.04296875 C4.4375 0.1875 4.4375 0.1875 6.4375 2.1875 C4.4375 4.1875 4.4375 4.1875 2.37890625 4.41796875 C1.59386719 4.40378906 0.80882813 4.38960937 0 4.375 C-0.78246094 4.36855469 -1.56492187 4.36210938 -2.37109375 4.35546875 C-4.5625 4.1875 -4.5625 4.1875 -7.5625 3.1875 C-7.5625 2.5275 -7.5625 1.8675 -7.5625 1.1875 C-4.76092552 0.25364184 -2.90802197 0.02395405 0 0 Z M-7.5625 4.1875 C-9.5625 7.1875 -9.5625 7.1875 -12.0625 7.9375 C-14.5625 8.1875 -14.5625 8.1875 -16.5625 7.1875 C-16.5625 8.1775 -16.5625 9.1675 -16.5625 10.1875 C-17.2225 10.1875 -17.8825 10.1875 -18.5625 10.1875 C-18.5625 10.8475 -18.5625 11.5075 -18.5625 12.1875 C-20.2125 12.1875 -21.8625 12.1875 -23.5625 12.1875 C-22.3398978 8.5196934 -21.45346325 8.29862643 -18.125 6.5625 C-16.92037109 5.92441406 -16.92037109 5.92441406 -15.69140625 5.2734375 C-12.30588704 3.54651211 -11.24159527 3.08377142 -7.5625 4.1875 Z " fill="#E9D674" transform="translate(105.5625,57.8125)"/>
<path d="M0 0 C12.94786539 1.0221999 23.50642087 11.01483108 32 20 C30.27734375 20.77734375 30.27734375 20.77734375 28 21 C25.87890625 19.19140625 25.87890625 19.19140625 23.5625 16.5625 C16.9130517 9.54802264 9.12522731 4.37346666 0 1 C0 0.67 0 0.34 0 0 Z " fill="#040403" transform="translate(141,57)"/>
<path d="M0 0 C2.13444066 2.74785763 3.97962441 5.53140548 5.6875 8.5625 C6.34298828 9.70912109 6.34298828 9.70912109 7.01171875 10.87890625 C8 13 8 13 8 16 C1.23150379 14.36622505 1.23150379 14.36622505 -0.16796875 12.15234375 C-0.67263672 11.05599609 -0.67263672 11.05599609 -1.1875 9.9375 C-1.53167969 9.20402344 -1.87585938 8.47054687 -2.23046875 7.71484375 C-2.48441406 7.14894531 -2.73835938 6.58304687 -3 6 C-2.34 6 -1.68 6 -1 6 C-1.33 4.68 -1.66 3.36 -2 2 C-1.34 2 -0.68 2 0 2 C0 1.34 0 0.68 0 0 Z " fill="#AC9254" transform="translate(99,110)"/>
<path d="M0 0 C0.66 0 1.32 0 2 0 C0.79618552 2.49361571 -0.45428722 4.68143083 -2 7 C-2.48398118 9.00045556 -2.96734217 11.00107738 -3.44140625 13.00390625 C-4.78098059 17.7907768 -7.15875985 20.11906989 -11 23 C-12.73490246 25.58443323 -12.73490246 25.58443323 -14 28 C-15 25 -15 25 -14.05957031 22.90283203 C-13.57069336 22.11247559 -13.08181641 21.32211914 -12.578125 20.5078125 C-12.04703125 19.63769531 -11.5159375 18.76757812 -10.96875 17.87109375 C-10.4015625 16.96488281 -9.834375 16.05867188 -9.25 15.125 C-8.69828125 14.22652344 -8.1465625 13.32804688 -7.578125 12.40234375 C-6.54273641 10.71734838 -5.50313978 9.03492638 -4.45800781 7.35595703 C-3.41047443 5.66327499 -2.40975319 3.94128867 -1.44042969 2.20263672 C-0.96508789 1.4757666 -0.48974609 0.74889648 0 0 Z " fill="#B18C3D" transform="translate(156,116)"/>
<path d="M0 0 C0.99 0 1.98 0 3 0 C3.33 0.99 3.66 1.98 4 3 C3.0390625 4.796875 3.0390625 4.796875 1.625 6.75 C-0.95598048 10.61074643 -1.71223515 13.39576245 -2 18 C-2.33 17.01 -2.66 16.02 -3 15 C-3.66 14.67 -4.32 14.34 -5 14 C-4.34 14 -3.68 14 -3 14 C-3.33 13.34 -3.66 12.68 -4 12 C-4.99 13.32 -5.98 14.64 -7 16 C-8 13 -8 13 -6.5625 9.8125 C-6.046875 8.884375 -5.53125 7.95625 -5 7 C-4.34 7 -3.68 7 -3 7 C-2.814375 6.1028125 -2.814375 6.1028125 -2.625 5.1875 C-2 3 -2 3 0 0 Z " fill="#BFA250" transform="translate(166,102)"/>
<path d="M0 0 C23.265 0.495 23.265 0.495 47 1 C45.68 3.31 44.36 5.62 43 8 C42.52401367 7.18958252 42.04802734 6.37916504 41.55761719 5.54418945 C38.39816395 2.40132365 36.89206641 2.38905419 32.60064697 2.28105164 C31.76821472 2.28498428 30.93578247 2.28891693 30.078125 2.29296875 C29.21813904 2.27784744 28.35815308 2.26272614 27.47210693 2.24714661 C24.73113869 2.20423239 21.99127087 2.1954283 19.25 2.1875 C17.38929358 2.1643585 15.5286134 2.13899388 13.66796875 2.11132812 C9.11188174 2.04843926 4.5564828 2.01613306 0 2 C0 1.34 0 0.68 0 0 Z " fill="#B6A675" transform="translate(109,94)"/>
<path d="M0 0 C1.98 0 3.96 0 6 0 C7 3 7 3 6.07421875 5.04296875 C5.38779297 6.10451172 5.38779297 6.10451172 4.6875 7.1875 C4.23761719 7.90292969 3.78773438 8.61835937 3.32421875 9.35546875 C2.66873047 10.16951172 2.66873047 10.16951172 2 11 C1.34 11 0.68 11 0 11 C-1.2890625 9.3203125 -1.2890625 9.3203125 -2.625 7.125 C-3.07101563 6.40570313 -3.51703125 5.68640625 -3.9765625 4.9453125 C-5 3 -5 3 -5 1 C-3.68 1.33 -2.36 1.66 -1 2 C-0.67 1.34 -0.34 0.68 0 0 Z " fill="#B0934F" transform="translate(138,112)"/>
<path d="M0 0 C2.74277578 3.19990508 4.6302836 6.00499382 6 10 C5.34 10.66 4.68 11.32 4 12 C4.32326553 15.59679066 4.32326553 15.59679066 5 19 C1.49702126 14.97806144 -4 8.60566856 -4 3 C-3.01 3 -2.02 3 -1 3 C-0.67 2.01 -0.34 1.02 0 0 Z " fill="#C0AB67" transform="translate(103,84)"/>
<path d="M0 0 C2.2432954 2.88423694 4.36318083 5.72636167 6 9 C5.6875 11.3125 5.6875 11.3125 5 13 C2.6875 12.875 2.6875 12.875 0 12 C-2.02201431 8.79266696 -3 6.80845564 -3 3 C-2.01 3 -1.02 3 0 3 C0 2.01 0 1.02 0 0 Z " fill="#B69049" transform="translate(120,113)"/>
<path d="M0 0 C0.33 0.99 0.66 1.98 1 3 C2.98 3 4.96 3 7 3 C6.67 3.99 6.34 4.98 6 6 C-5.385 5.505 -5.385 5.505 -17 5 C-17 4.67 -17 4.34 -17 4 C-15.88625 3.814375 -15.88625 3.814375 -14.75 3.625 C-12.18058185 3.04104133 -10.29101065 2.26400588 -8 1 C-5.29120665 -0.35439668 -2.99066732 -0.06501451 0 0 Z " fill="#DDCE79" transform="translate(130,56)"/>
<path d="M0 0 C0.66 0 1.32 0 2 0 C2.33 0.99 2.66 1.98 3 3 C3.66 2.67 4.32 2.34 5 2 C5.66 3.65 6.32 5.3 7 7 C6.01 7.495 6.01 7.495 5 8 C5.33 8.99 5.66 9.98 6 11 C5.67 11.66 5.34 12.32 5 13 C5.66 13.33 6.32 13.66 7 14 C6.67 15.32 6.34 16.64 6 18 C2 11.25 2 11.25 2 9 C0.02 9 -1.96 9 -4 9 C-3.38125 8.71125 -2.7625 8.4225 -2.125 8.125 C0.13325765 7.06279958 0.13325765 7.06279958 2 5 C-0.31 4.34 -2.62 3.68 -5 3 C-5 2.67 -5 2.34 -5 2 C-3.35 2 -1.7 2 0 2 C0 1.34 0 0.68 0 0 Z " fill="#9A7635" transform="translate(111,169)"/>
<path d="M0 0 C0.33 0.66 0.66 1.32 1 2 C1.99 2.33 2.98 2.66 4 3 C5.1875 6.0625 5.1875 6.0625 6 9 C6.33 9 6.66 9 7 9 C7 10.98 7 12.96 7 15 C5.68 15.33 4.36 15.66 3 16 C0.96780512 12.59648662 0.63108961 9.6767073 0.375 5.75 C0.30023438 4.67234375 0.22546875 3.5946875 0.1484375 2.484375 C0.09945312 1.66453125 0.05046875 0.8446875 0 0 Z " fill="#AA8643" transform="translate(61,129)"/>
<path d="M0 0 C0.66 0.33 1.32 0.66 2 1 C3.32 0.67 4.64 0.34 6 0 C7.32 2.64 8.64 5.28 10 8 C9.01 8.495 9.01 8.495 8 9 C7.34 8.01 6.68 7.02 6 6 C5.01 6 4.02 6 3 6 C3 9.3 3 12.6 3 16 C2.34 15.67 1.68 15.34 1 15 C0.62109375 12.6015625 0.62109375 12.6015625 0.4375 9.625 C0.23313343 6.46357425 0.00622117 4.01866352 -1 1 C-0.67 0.67 -0.34 0.34 0 0 Z " fill="#B49A57" transform="translate(74,109)"/>
<path d="M0 0 C0.66 0.66 1.32 1.32 2 2 C1.9765625 5.2578125 1.9765625 5.2578125 1.625 9.125 C1.51414062 10.40632813 1.40328125 11.68765625 1.2890625 13.0078125 C1.19367187 13.99523437 1.09828125 14.98265625 1 16 C-0.32 15.67 -1.64 15.34 -3 15 C-3.08107583 13.06318839 -3.13922475 11.1254066 -3.1875 9.1875 C-3.22230469 8.10855469 -3.25710937 7.02960938 -3.29296875 5.91796875 C-3 3 -3 3 -1.48828125 1.11328125 C-0.99714844 0.74589844 -0.50601563 0.37851563 0 0 Z " fill="#C3A04D" transform="translate(62,107)"/>
<path d="M0 0 C0.99 0 1.98 0 3 0 C3.48212214 1.56159059 3.96055873 3.12431928 4.4375 4.6875 C4.83775391 5.99267578 4.83775391 5.99267578 5.24609375 7.32421875 C5.96344529 9.87025921 6.517541 12.4003423 7 15 C7.99 15.33 8.98 15.66 10 16 C11.75 18.375 11.75 18.375 13 21 C12.67 21.99 12.34 22.98 12 24 C10.87064804 22.58680023 9.74669374 21.16928595 8.625 19.75 C7.99851562 18.96109375 7.37203125 18.1721875 6.7265625 17.359375 C4.33865025 14.09625509 3 12.08534222 3 8 C2.34 8 1.68 8 1 8 C0.67 5.36 0.34 2.72 0 0 Z " fill="#9D8145" transform="translate(75,124)"/>
<path d="M0 0 C-0.81640625 1.94921875 -0.81640625 1.94921875 -2 4 C-7.97673278 5.65313885 -13.91175352 4.71561668 -20 4 C-20 3.67 -20 3.34 -20 3 C-13.12418702 0.8408662 -7.21471629 -0.35482211 0 0 Z " fill="#DDC869" transform="translate(183,79)"/>
<path d="M0 0 C0.33 0.66 0.66 1.32 1 2 C1.99 2.66 2.98 3.32 4 4 C-3.92 4.495 -3.92 4.495 -12 5 C-11.67 4.34 -11.34 3.68 -11 3 C-13.97 2.505 -13.97 2.505 -17 2 C-17 1.67 -17 1.34 -17 1 C-11.33357449 -0.22517308 -5.76291482 -0.09228867 0 0 Z M1 0 C3 1 3 1 3 1 Z " fill="#F1E17F" transform="translate(121,56)"/>
<path d="M0 0 C-2.42231756 1.21417912 -4.84861455 2.41975571 -7.27734375 3.62109375 C-8.49741937 4.22651506 -9.71747086 4.83198501 -10.9375 5.4375 C-11.54529297 5.73720703 -12.15308594 6.03691406 -12.77929688 6.34570312 C-16.28426405 8.08873427 -19.67380899 9.93612057 -23 12 C-22.67 10.68 -22.34 9.36 -22 8 C-21.01 8 -20.02 8 -19 8 C-19 7.34 -19 6.68 -19 6 C-18.34 6 -17.68 6 -17 6 C-17 5.01 -17 4.02 -17 3 C-13.535 2.505 -13.535 2.505 -10 2 C-10 1.34 -10 0.68 -10 0 C-6.7169902 -1.6415049 -3.57454967 -0.51888624 0 0 Z " fill="#D9CB77" transform="translate(106,62)"/>
<path d="M0 0 C0.33 0.66 0.66 1.32 1 2 C3.02463255 2.65213292 3.02463255 2.65213292 5 3 C4.34 4.65 3.68 6.3 3 8 C2.01 7.67 1.02 7.34 0 7 C-2.33183607 6.32811503 -4.66501142 5.66084583 -7 5 C-7 4.34 -7 3.68 -7 3 C-7.66 2.34 -8.32 1.68 -9 1 C-4.545 0.505 -4.545 0.505 0 0 Z " fill="#E0CA6E" transform="translate(131,72)"/>
<path d="M0 0 C5.45479185 0.56820748 9.91059256 1.94637945 15 4 C13.72265625 5.515625 13.72265625 5.515625 12 7 C8.69564394 6.76811536 5.97858719 6.48929359 3 5 C3 4.01 3 3.02 3 2 C2.01 1.67 1.02 1.34 0 1 C0 0.67 0 0.34 0 0 Z " fill="#AB833E" transform="translate(99,170)"/>
<path d="M0 0 C2.46278801 2.46278801 2.99771255 4.70676982 4 8 C4.99 8 5.98 8 7 8 C7.66 7.34 8.32 6.68 9 6 C10 9 10 9 9 12 C8.03126968 13.35622245 7.03565785 14.69417053 6 16 C4.79994469 13.9021477 3.61497017 11.7979751 2.4375 9.6875 C1.92413086 8.79514648 1.92413086 8.79514648 1.40039062 7.88476562 C0.52233738 6.29717441 -0.24586268 4.65006069 -1 3 C-0.67 2.01 -0.34 1.02 0 0 Z " fill="#A07D3D" transform="translate(130,138)"/>
<path d="M0 0 C5.47826087 -0.36521739 5.47826087 -0.36521739 7.875 1.3125 C9 3 9 3 9 6 C6.75 6.75 6.75 6.75 4 7 C1.6875 5.25 1.6875 5.25 0 3 C0 2.01 0 1.02 0 0 Z " fill="#E6D574" transform="translate(145,62)"/>
<path d="M0 0 C-3.50108931 2.33405954 -6.90754908 3.11363958 -10.9375 4.0625 C-11.65357422 4.23587891 -12.36964844 4.40925781 -13.10742188 4.58789062 C-15.07060971 5.06276739 -17.03525123 5.53162336 -19 6 C-20.33371782 6.33179161 -21.66715655 6.6647132 -23 7 C-22.67 6.01 -22.34 5.02 -22 4 C-14.92110362 0.51303127 -7.80365598 -0.62153012 0 0 Z " fill="#E1D28A" transform="translate(121,72)"/>
<path d="M0 0 C3.09592835 3.5087188 4.74194623 6.49197399 6 11 C5.34 11 4.68 11 4 11 C2.375 9 2.375 9 1 7 C1.33 9.31 1.66 11.62 2 14 C-1.3502463 10.18765077 -3.16974789 6.66714289 -5 2 C-4.34 2 -3.68 2 -3 2 C-2.67 2.66 -2.34 3.32 -2 4 C-1.34 4 -0.68 4 0 4 C0 2.68 0 1.36 0 0 Z " fill="#9B7D45" transform="translate(122,150)"/>
<path d="M0 0 C2.90665894 3.6805097 5.31976988 7.62316996 7.75 11.625 C8.17410156 12.305625 8.59820312 12.98625 9.03515625 13.6875 C10.0870775 15.42128551 11.0513435 17.20762689 12 19 C11.67 19.66 11.34 20.32 11 21 C10.7525 20.38125 10.505 19.7625 10.25 19.125 C9.19197336 16.85109061 9.19197336 16.85109061 7 16.125 C4.016146 14.44658212 3.94236619 12.20404503 3 9 C2.46375 8.13375 1.9275 7.2675 1.375 6.375 C0 4 0 4 0 0 Z " fill="#A0844B" transform="translate(85,119)"/>
<path d="M0 0 C1.5625 1.5625 1.5625 1.5625 3 4 C2.6875 7.75 2.6875 7.75 2 11 C-0.39489543 10.25675659 -1.70777616 9.52942646 -2.93359375 7.30859375 C-3.67219923 5.55926499 -4.34049685 3.78065851 -5 2 C-3.35 2 -1.7 2 0 2 C0 1.34 0 0.68 0 0 Z " fill="#B79E56" transform="translate(96,105)"/>
<path d="M0 0 C0 0.99 0 1.98 0 3 C0.99 3 1.98 3 3 3 C2.67 3.66 2.34 4.32 2 5 C1.01 4.67 0.02 4.34 -1 4 C-0.67 4.99 -0.34 5.98 0 7 C-0.66 7 -1.32 7 -2 7 C-2 7.99 -2 8.98 -2 10 C-3.32 10.33 -4.64 10.66 -6 11 C-5.54177532 7.53058454 -5.10868317 4.32604951 -4 1 C-2 0 -2 0 0 0 Z " fill="#D0B257" transform="translate(68,91)"/>
<path d="M0 0 C5.94 0.99 5.94 0.99 12 2 C12 3.32 12 4.64 12 6 C10.68 6.33 9.36 6.66 8 7 C8 6.34 8 5.68 8 5 C3.545 5.495 3.545 5.495 -1 6 C-0.01 5.01 0.98 4.02 2 3 C2.99 3 3.98 3 5 3 C2.525 2.01 2.525 2.01 0 1 C0 0.67 0 0.34 0 0 Z " fill="#ADA15E" transform="translate(129,54)"/>
<path d="M0 0 C2.31 0 4.62 0 7 0 C7.99 1.98 8.98 3.96 10 6 C6.37673261 7.2077558 5.35853631 6.54311128 2 5 C2 4.34 2 3.68 2 3 C1.34 3 0.68 3 0 3 C0 2.01 0 1.02 0 0 Z " fill="#BFAB6D" transform="translate(84,95)"/>
<path d="M0 0 C0.66 0.99 1.32 1.98 2 3 C-2.51718381 4.36884358 -5.58774263 3.47075246 -10 2 C-9.484375 2.94875 -8.96875 3.8975 -8.4375 4.875 C-7.963125 5.90625 -7.48875 6.9375 -7 8 C-7.33 8.66 -7.66 9.32 -8 10 C-8.83905565 8.87926138 -9.67107831 7.75325453 -10.5 6.625 C-10.9640625 5.99851562 -11.428125 5.37203125 -11.90625 4.7265625 C-13 3 -13 3 -13 1 C-6.565 0.505 -6.565 0.505 0 0 Z " fill="#D5C880" transform="translate(68,77)"/>
<path d="M0 0 C5.93749249 0.07256935 10.46043992 1.08454336 15.9375 3.3125 C15.9375 3.6425 15.9375 3.9725 15.9375 4.3125 C-0.9554385 3.34894647 -0.9554385 3.34894647 -8.0625 2.3125 C-5.34222753 -0.40777247 -3.79659508 0.01332139 0 0 Z " fill="#E9E18B" transform="translate(122.0625,53.6875)"/>
<path d="M0 0 C0.33 0.66 0.66 1.32 1 2 C0.67 2.66 0.34 3.32 0 4 C0.66 4 1.32 4 2 4 C2 3.34 2 2.68 2 2 C2.66 2.33 3.32 2.66 4 3 C4 3.66 4 4.32 4 5 C3.401875 5.268125 2.80375 5.53625 2.1875 5.8125 C0.02775192 6.98493467 -1.35790256 8.19369282 -3 10 C-3 9.34 -3 8.68 -3 8 C-3.66 8 -4.32 8 -5 8 C-3.375 2.25 -3.375 2.25 0 0 Z " fill="#C7A84E" transform="translate(172,94)"/>
<path d="M0 0 C1.32 0 2.64 0 4 0 C7 5.625 7 5.625 7 9 C4.83125748 8.49396008 3.00032373 8.00016187 1 7 C0.59270772 4.67843403 0.25561323 2.3431213 0 0 Z " fill="#B39245" transform="translate(100,117)"/>
<path d="M0 0 C6.14587738 0.2410148 6.14587738 0.2410148 8.578125 2.40234375 C9.78844931 3.88046971 10.90220903 5.43647953 12 7 C11.67 7.66 11.34 8.32 11 9 C7.92890399 7.25694551 5.38697778 5.60397576 3 3 C2.443125 2.443125 1.88625 1.88625 1.3125 1.3125 C0.879375 0.879375 0.44625 0.44625 0 0 Z " fill="#E0CC66" transform="translate(153,69)"/>
<path d="M0 0 C2.35964273 0.40683495 3.85934088 0.89814339 5.8125 2.3125 C7 4 7 4 6.6875 6.1875 C6.460625 6.785625 6.23375 7.38375 6 8 C4.68 7.67 3.36 7.34 2 7 C1.34 4.69 0.68 2.38 0 0 Z " fill="#AD863B" transform="translate(110,136)"/>
<path d="M0 0 C2.82661469 0.38987789 3.78678422 0.73758058 5.625 3 C6.07875 3.66 6.5325 4.32 7 5 C7.66 5.33 8.32 5.66 9 6 C9 6.66 9 7.32 9 8 C6.0625 7.625 6.0625 7.625 3 7 C2.67 6.34 2.34 5.68 2 5 C1.01 4.67 0.02 4.34 -1 4 C-0.67 2.68 -0.34 1.36 0 0 Z " fill="#AB833A" transform="translate(69,148)"/>
<path d="M0 0 C0.99 0 1.98 0 3 0 C3.66 0.99 4.32 1.98 5 3 C4.19185349 4.33597652 3.37836819 5.668725 2.5625 7 C1.88380859 8.11375 1.88380859 8.11375 1.19140625 9.25 C0.79824219 9.8275 0.40507812 10.405 0 11 C-0.33 11 -0.66 11 -1 11 C-1.0270043 9.54176788 -1.04639787 8.08339325 -1.0625 6.625 C-1.07410156 5.81289062 -1.08570313 5.00078125 -1.09765625 4.1640625 C-1 2 -1 2 0 0 Z " fill="#BC9F54" transform="translate(147,100)"/>
<path d="M0 0 C2.375 0.1875 2.375 0.1875 5 1 C6.59660706 3.88909849 7 5.69058796 7 9 C6.01 9.33 5.02 9.66 4 10 C3.9175 9.4225 3.835 8.845 3.75 8.25 C2.79468987 5.3840696 1.21530827 4.0009236 -1 2 C-0.67 1.34 -0.34 0.68 0 0 Z " fill="#D6BF5C" transform="translate(60,81)"/>
<path d="M0 0 C0.66 0 1.32 0 2 0 C0.31331141 3.48301195 -1.57147137 6.83300423 -3.5 10.1875 C-4.1084375 11.25355469 -4.716875 12.31960937 -5.34375 13.41796875 C-7 16 -7 16 -9 17 C-7.46933687 11.18348012 -4.32262613 4.32262613 0 0 Z " fill="#B59D65" transform="translate(156,116)"/>
<path d="M0 0 C1.98 0 3.96 0 6 0 C6.33 0.99 6.66 1.98 7 3 C0.375 6 0.375 6 -3 6 C-3 5.34 -3 4.68 -3 4 C-2.01 4 -1.02 4 0 4 C0 2.68 0 1.36 0 0 Z " fill="#9F7A3A" transform="translate(140,170)"/>
<path d="M0 0 C0.66 0.33 1.32 0.66 2 1 C1.91253716 2.43861294 1.80434652 3.87597508 1.6875 5.3125 C1.62949219 6.11300781 1.57148438 6.91351563 1.51171875 7.73828125 C0.91793306 10.36272334 0.04219706 11.30820672 -2 13 C-1.85966889 11.02043559 -1.7125877 9.04134859 -1.5625 7.0625 C-1.48128906 5.96035156 -1.40007812 4.85820313 -1.31640625 3.72265625 C-1 1 -1 1 0 0 Z " fill="#C49B45" transform="translate(179,110)"/>
<path d="M0 0 C0.99 0.33 1.98 0.66 3 1 C1.68 3.31 0.36 5.62 -1 8 C-1.66 8 -2.32 8 -3 8 C-3.12375 8.598125 -3.2475 9.19625 -3.375 9.8125 C-4 12 -4 12 -6 15 C-6.66 14.67 -7.32 14.34 -8 14 C-5.36 9.38 -2.72 4.76 0 0 Z " fill="#C7AF73" transform="translate(164,101)"/>
<path d="M0 0 C2.375 0.3125 2.375 0.3125 5 1 C7 4 7 4 6.625 6.1875 C6.41875 6.785625 6.2125 7.38375 6 8 C5.67 6.68 5.34 5.36 5 4 C4.34 4 3.68 4 3 4 C3 4.66 3 5.32 3 6 C2.01 6 1.02 6 0 6 C0 4.02 0 2.04 0 0 Z " fill="#A17E3E" transform="translate(108,165)"/>
<path d="M0 0 C1.875 0.3125 1.875 0.3125 4 1 C6 4 6 4 6 7 C1.125 6.125 1.125 6.125 0 5 C-0.04063832 3.33382885 -0.042721 1.66611905 0 0 Z " fill="#AA833A" transform="translate(85,163)"/>
<path d="M0 0 C3.30979968 2.81332973 5.1048141 6.141943 7 10 C6.609375 12.22265625 6.609375 12.22265625 6 14 C4.98915735 12.42356682 3.99169489 10.8385483 3 9.25 C2.443125 8.36828125 1.88625 7.4865625 1.3125 6.578125 C0 4 0 4 0 0 Z " fill="#070605" transform="translate(55,80)"/>
<path d="M0 0 C0.99 0 1.98 0 3 0 C3 0.66 3 1.32 3 2 C4.32 2.33 5.64 2.66 7 3 C7.33 2.34 7.66 1.68 8 1 C8.33 2.32 8.66 3.64 9 5 C7.68 4.67 6.36 4.34 5 4 C4.67 5.32 4.34 6.64 4 8 C2.68 5.36 1.36 2.72 0 0 Z " fill="#997C45" transform="translate(124,131)"/>
<path d="M0 0 C0.99 0 1.98 0 3 0 C3.66 3.63 4.32 7.26 5 11 C4.34 11 3.68 11 3 11 C3 10.01 3 9.02 3 8 C2.34 8 1.68 8 1 8 C0.67 5.36 0.34 2.72 0 0 Z " fill="#806B42" transform="translate(75,124)"/>
<path d="M0 0 C2.35953094 2.35953094 2.49141413 3.77895617 3 7 C0.50907189 8.24546405 -0.41080733 7.7767578 -3 7 C-3.33 5.68 -3.66 4.36 -4 3 C-3.01 3 -2.02 3 -1 3 C-0.67 2.01 -0.34 1.02 0 0 Z " fill="#C9B666" transform="translate(103,84)"/>
<path d="M0 0 C3.37503669 1.1858237 5.64722731 2.27573689 8 5 C7.38125 5.12375 6.7625 5.2475 6.125 5.375 C3.80879168 5.87197356 3.80879168 5.87197356 2 8 C1.34 7.34 0.68 6.68 0 6 C0.66 6 1.32 6 2 6 C1.34 4.02 0.68 2.04 0 0 Z " fill="#9A7946" transform="translate(89,164)"/>
<path d="M0 0 C2.88437779 1.29299694 4.87219421 2.65941363 7 5 C6.01 5 5.02 5 4 5 C3.67 5.99 3.34 6.98 3 8 C0.525 7.01 0.525 7.01 -2 6 C-1.01 5.01 -0.02 4.02 1 3 C0.67 2.01 0.34 1.02 0 0 Z " fill="#9A7B47" transform="translate(82,159)"/>
<path d="M0 0 C2.52349243 3.12432397 4.27256146 6.38060496 6 10 C5.01 10.495 5.01 10.495 4 11 C2 9 2 9 1.0625 6.9375 C0.09596458 4.65434116 0.09596458 4.65434116 -3 4 C-2.01 3.67 -1.02 3.34 0 3 C0 2.01 0 1.02 0 0 Z " fill="#A98C4F" transform="translate(120,113)"/>
<path d="M0 0 C2 3 2 3 2 7 C1.01 7 0.02 7 -1 7 C-1 6.34 -1 5.68 -1 5 C-1.66 5 -2.32 5 -3 5 C-3.66 5.66 -4.32 6.32 -5 7 C-5 5.35 -5 3.7 -5 2 C-4.01 1.67 -3.02 1.34 -2 1 C-1.67 1.66 -1.34 2.32 -1 3 C-0.67 2.01 -0.34 1.02 0 0 Z " fill="#A69351" transform="translate(179,98)"/>
<path d="M0 0 C1.98 0 3.96 0 6 0 C6.33 0.99 6.66 1.98 7 3 C5.68 4.32 4.36 5.64 3 7 C2.67 6.01 2.34 5.02 2 4 C1.34 3.67 0.68 3.34 0 3 C0 2.01 0 1.02 0 0 Z " fill="#B99B4D" transform="translate(138,112)"/>
<path d="M0 0 C0.66 0.33 1.32 0.66 2 1 C1.01 4.96 0.02 8.92 -1 13 C-1.66 13 -2.32 13 -3 13 C-2.68991116 11.39536551 -2.37683713 9.79130769 -2.0625 8.1875 C-1.88847656 7.29417969 -1.71445312 6.40085937 -1.53515625 5.48046875 C-1 3 -1 3 0 0 Z " fill="#CBBB79" transform="translate(61,94)"/>
<path d="M0 0 C0.66 0.66 1.32 1.32 2 2 C-2.62 2 -7.24 2 -12 2 C-12 1.67 -12 1.34 -12 1 C-4.43661972 -1.52112676 -4.43661972 -1.52112676 0 0 Z " fill="#D8BF5F" transform="translate(175,81)"/>
<path d="M0 0 C1.32 0 2.64 0 4 0 C4.226875 0.598125 4.45375 1.19625 4.6875 1.8125 C6.33811133 4.56351888 8.1972081 5.52484637 11 7 C10.67 7.66 10.34 8.32 10 9 C8.3278148 7.88321917 6.66237197 6.75633648 5 5.625 C3.6078125 4.68527344 3.6078125 4.68527344 2.1875 3.7265625 C1.465625 3.15679687 0.74375 2.58703125 0 2 C0 1.34 0 0.68 0 0 Z " fill="#9A7C48" transform="translate(89,148)"/>
<path d="M0 0 C2.78388975 1.70625501 3.85384206 2.47626739 4.75 5.6875 C4.8325 6.450625 4.915 7.21375 5 8 C3.68 7.67 2.36 7.34 1 7 C1 6.34 1 5.68 1 5 C0.34 5 -0.32 5 -1 5 C-0.67 3.35 -0.34 1.7 0 0 Z " fill="#AF8537" transform="translate(118,147)"/>
<path d="M0 0 C0.66 1.32 1.32 2.64 2 4 C1.01 5.485 1.01 5.485 0 7 C-0.99 6.67 -1.98 6.34 -3 6 C-3 4.35 -3 2.7 -3 1 C-2.01 0.67 -1.02 0.34 0 0 Z " fill="#BE9940" transform="translate(80,114)"/>
<path d="M0 0 C0.33 0.66 0.66 1.32 1 2 C1.99 2.33 2.98 2.66 4 3 C4.33 3.66 4.66 4.32 5 5 C1.53058454 4.54177532 -1.67395049 4.10868317 -5 3 C-5 2.34 -5 1.68 -5 1 C-2 0 -2 0 0 0 Z " fill="#8E7038" transform="translate(102,172)"/>
<path d="M0 0 C0.66 0 1.32 0 2 0 C1.32902328 4.19360449 -0.8558394 7.40334352 -3 11 C-3.75 9.4375 -3.75 9.4375 -4 7 C-2.86915563 4.49713591 -1.47860484 2.32992278 0 0 Z " fill="#AA8B57" transform="translate(125,169)"/>
<path d="M0 0 C0.33 0 0.66 0 1 0 C2.17076699 3.98060777 3.25749403 7.91621717 4 12 C3.01 12 2.02 12 1 12 C0.01751476 7.9472484 -0.08159574 4.16138263 0 0 Z " fill="#725F3A" transform="translate(58,124)"/>
<path d="M0 0 C1.32 1.32 2.64 2.64 4 4 C3.34 4 2.68 4 2 4 C1.34 5.65 0.68 7.3 0 9 C-0.99 9 -1.98 9 -3 9 C-2.01 6.03 -1.02 3.06 0 0 Z " fill="#B48D44" transform="translate(177,123)"/>
<path d="M0 0 C1.875 0.1875 1.875 0.1875 4 1 C5.25 3.5625 5.25 3.5625 6 6 C4.68 6.33 3.36 6.66 2 7 C0.5393715 4.35261084 0 3.10551666 0 0 Z " fill="#AF823A" transform="translate(78,157)"/>
<path d="M0 0 C0.33 0 0.66 0 1 0 C1.33 3.3 1.66 6.6 2 10 C1.01 10 0.02 10 -1 10 C-1.02689216 8.52093108 -1.04634621 7.04172517 -1.0625 5.5625 C-1.07410156 4.73878906 -1.08570313 3.91507812 -1.09765625 3.06640625 C-1 1 -1 1 0 0 Z " fill="#BB9943" transform="translate(61,113)"/>
<path d="M0 0 C1.98 0.495 1.98 0.495 4 1 C3.625 3.4375 3.625 3.4375 3 6 C2.01 6.495 2.01 6.495 1 7 C1 6.34 1 5.68 1 5 C0.34 5 -0.32 5 -1 5 C-0.67 3.35 -0.34 1.7 0 0 Z " fill="#C4A44D" transform="translate(67,95)"/>
<path d="M0 0 C0.99 0.66 1.98 1.32 3 2 C2.34 3.98 1.68 5.96 1 8 C-3 3.25 -3 3.25 -3 1 C-2.01 0.67 -1.02 0.34 0 0 Z " fill="#B69F58" transform="translate(90,99)"/>
<path d="M0 0 C0.99 0 1.98 0 3 0 C2.67 1.98 2.34 3.96 2 6 C-0.475 5.01 -0.475 5.01 -3 4 C-1.6875 2 -1.6875 2 0 0 Z " fill="#E1CE6B" transform="translate(81,69)"/>
<path d="M0 0 C0.33 0.66 0.66 1.32 1 2 C0.29296875 3.91015625 0.29296875 3.91015625 -0.8125 6.0625 C-1.16957031 6.77535156 -1.52664062 7.48820313 -1.89453125 8.22265625 C-3 10 -3 10 -5 11 C-4.46884894 6.48521602 -2.63379708 3.65333143 0 0 Z " fill="#B0965D" transform="translate(146,133)"/>
<path d="M0 0 C1.98 0.99 1.98 0.99 4 2 C3.67 2.66 3.34 3.32 3 4 C3.66 4.33 4.32 4.66 5 5 C4.67 6.32 4.34 7.64 4 9 C0 2.25 0 2.25 0 0 Z " fill="#917342" transform="translate(113,178)"/>
<path d="M0 0 C0.99 0 1.98 0 3 0 C1.125 4.75 1.125 4.75 0 7 C-0.99 6.67 -1.98 6.34 -3 6 C-3 5.34 -3 4.68 -3 4 C-2.01 4 -1.02 4 0 4 C0 2.68 0 1.36 0 0 Z " fill="#957544" transform="translate(121,183)"/>
<path d="M0 0 C2.00773956 2.00773956 2.99392854 3.36873617 4 6 C3.625 8.25 3.625 8.25 3 10 C-0.22265625 4.82421875 -0.22265625 4.82421875 -1 3 C-0.67 2.01 -0.34 1.02 0 0 Z " fill="#9B7F4C" transform="translate(130,138)"/>
<path d="M0 0 C0.33 0.66 0.66 1.32 1 2 C1.99 2.33 2.98 2.66 4 3 C3.67 4.65 3.34 6.3 3 8 C2.34 7.67 1.68 7.34 1 7 C0.59270772 4.67843403 0.25561323 2.3431213 0 0 Z " fill="#B18833" transform="translate(61,129)"/>
<path d="M0 0 C0.66 0.33 1.32 0.66 2 1 C0.84826645 3.46800047 -0.04783565 5.04783565 -2 7 C-2.66 5.35 -3.32 3.7 -4 2 C-2.125 0.9375 -2.125 0.9375 0 0 Z " fill="#BB9F4F" transform="translate(134,106)"/>
<path d="M0 0 C0.66 0.99 1.32 1.98 2 3 C1.01 3.99 0.02 4.98 -1 6 C-1.33 5.01 -1.66 4.02 -2 3 C-2.99 3.33 -3.98 3.66 -5 4 C-4.67 3.01 -4.34 2.02 -4 1 C-2.02 1.495 -2.02 1.495 0 2 C0 1.34 0 0.68 0 0 Z " fill="#B99B50" transform="translate(113,101)"/>
<path d="M0 0 C0.99 1.32 1.98 2.64 3 4 C2.01 4.99 1.02 5.98 0 7 C0 6.34 0 5.68 0 5 C-0.66 5 -1.32 5 -2 5 C-1.34 3.35 -0.68 1.7 0 0 Z " fill="#C9AC59" transform="translate(169,97)"/>
<path d="M0 0 C-1.75 4.875 -1.75 4.875 -4 6 C-4.66 4.35 -5.32 2.7 -6 1 C-3.92446352 0.4465236 -2.15634036 0 0 0 Z " fill="#C1AB67" transform="translate(155,96)"/>
<path d="M0 0 C1.5 1.1875 1.5 1.1875 3 3 C3.1875 5.6875 3.1875 5.6875 3 8 C2.34 8 1.68 8 1 8 C0.34 5.69 -0.32 3.38 -1 1 C-0.67 0.67 -0.34 0.34 0 0 Z " fill="#AC863C" transform="translate(123,156)"/>
<path d="M0 0 C1.32 0.33 2.64 0.66 4 1 C4 2.65 4 4.3 4 6 C2.68 5.34 1.36 4.68 0 4 C0 2.68 0 1.36 0 0 Z " fill="#B18438" transform="translate(104,158)"/>
<path d="M0 0 C-0.3125 1.875 -0.3125 1.875 -1 4 C-1.99 4.66 -2.98 5.32 -4 6 C-4.33 4.35 -4.66 2.7 -5 1 C-3 0 -3 0 0 0 Z " fill="#987941" transform="translate(167,155)"/>
<path d="M0 0 C0.99 0 1.98 0 3 0 C2.625 2.9375 2.625 2.9375 2 6 C1.01 6.495 1.01 6.495 0 7 C0 4.69 0 2.38 0 0 Z " fill="#A28538" transform="translate(155,137)"/>
</svg>
